<?xml version="1.0" standalone="no"?>
<!DOCTYPE svg PUBLIC "-//W3C//DTD SVG 1.1//EN" "http://www.w3.org/Graphics/SVG/1.1/DTD/svg11.dtd" >
<svg xmlns="http://www.w3.org/2000/svg">
<metadata>
Created by FontForge 20120731 at Mon Nov 21 17:22:43 2016
 By admin
</metadata>
<defs>
<font id="iconfont" horiz-adv-x="1024" >
  <font-face 
    font-family="iconfont"
    font-weight="500"
    font-stretch="normal"
    units-per-em="1024"
    panose-1="2 0 6 3 0 0 0 0 0 0"
    ascent="896"
    descent="-128"
    x-height="792"
    bbox="0 -221 1205 896"
    underline-thickness="0"
    underline-position="0"
    unicode-range="U+0078-F0167"
  />
<missing-glyph 
 />
    <glyph glyph-name=".notdef" 
 />
    <glyph glyph-name=".null" horiz-adv-x="0" 
 />
    <glyph glyph-name="nonmarkingreturn" horiz-adv-x="341" 
 />
    <glyph glyph-name="x" unicode="x" horiz-adv-x="1001" 
d="M281 543q-27 -1 -53 -1h-83q-18 0 -36.5 -6t-32.5 -18.5t-23 -32t-9 -45.5v-76h912v41q0 16 -0.5 30t-0.5 18q0 13 -5 29t-17 29.5t-31.5 22.5t-49.5 9h-133v-97h-438v97zM955 310v-52q0 -23 0.5 -52t0.5 -58t-10.5 -47.5t-26 -30t-33 -16t-31.5 -4.5q-14 -1 -29.5 -0.5
t-29.5 0.5h-32l-45 128h-439l-44 -128h-29h-34q-20 0 -45 1q-25 0 -41 9.5t-25.5 23t-13.5 29.5t-4 30v167h911zM163 247q-12 0 -21 -8.5t-9 -21.5t9 -21.5t21 -8.5q13 0 22 8.5t9 21.5t-9 21.5t-22 8.5zM316 123q-8 -26 -14 -48q-5 -19 -10.5 -37t-7.5 -25t-3 -15t1 -14.5
t9.5 -10.5t21.5 -4h37h67h81h80h64h36q23 0 34 12t2 38q-5 13 -9.5 30.5t-9.5 34.5q-5 19 -11 39h-368zM336 498v228q0 11 2.5 23t10 21.5t20.5 15.5t34 6h188q31 0 51.5 -14.5t20.5 -52.5v-227h-327z" />
    <glyph glyph-name="zhengque" unicode="&#xf0156;" 
d="M514 837q93 0 174.5 -35.5t142.5 -97t96.5 -143.5t35.5 -175t-35.5 -175.5t-96.5 -144t-142.5 -97t-174.5 -35.5t-175 35.5t-143 97t-96 144t-35 175.5t35 175t96 143.5t143 97t175 35.5zM796 472q18 18 19 45.5t-17.5 46t-45 18t-44.5 -19.5l-289 -289l-100 99
q-18 18 -44.5 18.5t-45 -18t-19 -43.5t17.5 -43l143 -144q18 -18 48 -17.5t48 18.5l-4 -4z" />
    <glyph glyph-name="xinlang" unicode="&#x3436;" horiz-adv-x="1000" 
d="M368 274q-137 -16 -137 -163q0 -2 0.5 -5t2.5 -12.5t5.5 -17.5t12.5 -18t21 -16q70 -34 131.5 -20.5t98.5 61.5q14 18 19 44.5t-2 54t-24 50.5t-50.5 35t-77.5 7zM329 70.5q-22 -2.5 -37 8.5t-15 29q0 19 14 34.5t35 17.5q25 2 40 -9.5t15 -30.5q0 -18 -15 -32.5t-37 -17
zM420 148.5q-7 -5.5 -15 -5t-12 7.5q-4 6 -2.5 15t9.5 14q8 6 16 5t12 -7.5t1.5 -15t-9.5 -14zM782 669q-53 12 -126 -2q-1 0 -2 -0.5l-1 -0.5l-1 -1q-12 -3 -19.5 -13t-7.5 -22q0 -16 10.5 -26.5t26.5 -10.5q20 2 33 8q6 0 19 1.5t35 -4t44 -14t45.5 -28t39.5 -46.5
q28 -63 11 -122q-7 -18 -7 -35q0 -15 10.5 -24.5t26 -9.5t24 6t11.5 26v0q19 59 14.5 107.5t-21 84t-45.5 62t-58.5 41.5t-61.5 23zM801 373q9 0 16 6t9 15v2q4 35 -1.5 61.5t-17.5 41t-27.5 24t-32 12.5t-30 3.5t-22 -0.5l-8.5 -1q-10 0 -17.5 -7.5t-7.5 -18t7.5 -18
t17.5 -7.5q33 7 52.5 1t27.5 -21t10 -30t0 -27l-2 -11q0 -11 7.5 -18t18.5 -7zM726 310q-17 3 -21.5 9.5t-1.5 12.5l4 5q1 2 3.5 6t6 16.5t4.5 24.5t-4 27t-17 27q-15 15 -39 20t-48 1t-46 -10t-35 -12l-14 -6q-10 -3 -17 -4t-11 0.5t-6 3t-2 7.5t1 10t3 13.5t3 14.5
q0 16 -2.5 29.5t-11.5 29t-24 23t-43 7t-65 -12.5q-37 -13 -75.5 -38.5t-67.5 -52.5t-52.5 -52.5t-35.5 -42.5l-13 -16q-22 -29 -36.5 -59.5t-20.5 -50.5t-8.5 -39.5t-2.5 -26t1 -9.5v0q5 -51 30.5 -91.5t60 -66t82 -43t90.5 -25.5t92 -12q80 -6 165 12.5t158.5 64.5
t103.5 111q18 38 18.5 71t-11.5 54t-30.5 37t-35 23t-29.5 10zM399 -23q-116 -5 -197 45t-81 127t80.5 132t197.5 60q117 6 197.5 -38.5t80.5 -119.5q0 -78 -82 -139.5t-196 -66.5z" />
    <glyph glyph-name="quan" unicode="&#x3457;" horiz-adv-x="1000" 
d="M850 -87h-672q-26 0 -45 18.5t-19 45.5v671q0 27 19 45.5t45 18.5h672q26 0 45 -18.5t19 -45.5v-671q0 -27 -19 -45.5t-45 -18.5zM359 554l-28 -23q33 -35 61 -69l32 27q-28 31 -65 65zM654 554q-25 -38 -59 -72l30 -23q35 36 63 74zM757 331v34h-294q19 28 33 58h235v34
h-222q15 44 29 96l-40 8q-12 -56 -31 -104h-174v-34h159q-15 -31 -36 -58h-144v-34h115q-50 -51 -122 -86q14 -17 24 -34q37 21 68 44v-26h69q-7 -46 -31 -73q-30 -35 -113 -56q11 -15 22 -36q89 27 122 65q30 33 40 100h149q-6 -49 -10 -77q-6 -36 -50 -36q-37 0 -81 3
q7 -21 10 -41q60 -1 82 -1q67 0 78 68q6 49 13 108q35 -23 78 -37q14 20 28 38q-88 18 -142 77h136zM437 331h139q28 -40 66 -68h-275q40 31 70 68z" />
    <glyph glyph-name="tuan" unicode="&#x3458;" horiz-adv-x="1000" 
d="M852 -86h-672q-26 0 -45 18.5t-19 45.5v671q0 27 19 45.5t45 18.5h672q26 0 45 -18.5t19 -45.5v-671q0 -27 -19 -45.5t-45 -18.5zM735 547h-438v-467h38v25h362v-24h38v466zM335 512h362v-372h-362v372zM367 198q119 72 180 167v-117q0 -47 -41 -47q-24 0 -57 4
q5 -22 8 -39q30 -1 58 -1q69 0 69 72v153h96v34h-96v72h-37v-72h-187v-34h163q-65 -94 -181 -159q16 -17 25 -33z" />
    <glyph glyph-name="sousuo" unicode="&#x343e;" horiz-adv-x="1000" 
d="M936 -24l-198 203q-1 1 -3.5 2.5t-3.5 2.5q66 93 66 207q0 98 -48 181t-131 131t-180.5 48t-180.5 -48t-131 -131t-48 -180.5t48 -180.5t131 -131t181 -48q121 0 218 74q0 -1 1 -2.5t2 -1.5l198 -204q17 -16 40 -16q22 0 39 15q16 16 16 39t-16 40zM133 391.5
q0 125.5 89.5 215t215.5 89.5t215 -89.5t89 -215t-89 -215t-215 -89.5t-215.5 89.5t-89.5 215z" />
    <glyph glyph-name="erweima" unicode="&#xe601;" 
d="M32 812h410q12 -1 19.5 -8.5t10 -24t3.5 -27.5t0 -34.5t-1 -29.5v-224q0 -8 1 -29t0.5 -32t-2.5 -25.5t-7.5 -23t-15 -12.5t-28.5 -4.5t-45 0.5t-32 1h-218q-9 0 -31.5 -1t-34 -0.5t-27 3t-24 10t-10.5 19.5v411q9 24 32 31v0zM88 720v-293h296v297h-294q-2 -1 -2 -4v0z
M583 812h411q26 -10 31 -37v-399q-6 -29 -29 -35q-12 -4 -29.5 -4t-41 1t-32.5 1h-211q-9 0 -33 -1.5t-42 -1t-30 4.5q-10 3 -16.5 12t-8.5 25t-2 28t0.5 34.5t0.5 30.5v209q0 10 -1 34t-0.5 36t3 27.5t10 24t20.5 10.5v0zM639 720v-293h297v297h-295q-2 -1 -2 -4v0z
M223 634q31 6 52.5 -11.5t22.5 -45.5q0 -36 -30 -53.5t-60 -2.5q-22 12 -29 37t5 48t39 28v0zM774 634q50 9 68 -32q14 -35 -8 -65q-20 -28 -60 -21q-29 5 -40.5 31.5t0 54t40.5 32.5v0zM440 -212h-407q-26 7 -33 32v409q8 25 28 30q12 3 29 3.5t40.5 -1t33.5 -1.5h211
q9 0 32.5 1.5t41.5 1.5t30 -4q11 -3 18 -12t9 -25t2.5 -28t-0.5 -34t-1 -30v-216q0 -9 0.5 -23.5t0.5 -24v-22.5t-2.5 -21.5t-6 -17t-10.5 -12.5t-16 -5v0zM88 168v-292h296v296h-294q-2 0 -2 -4v0zM1025 224v-114q-2 -10 -1.5 -61.5t0.5 -62.5h-294v66q-6 2 -44 2h-47
q-2 -23 -1.5 -132.5t0.5 -133.5h-54q-13 2 -21 10.5t-10.5 24.5t-3 28t0.5 35.5t1 32.5v211q0 9 -1.5 33t-1 42t4.5 30q2 6 5.5 10.5t9.5 7.5t11 4.5t15 2t15 1t17.5 0t17.5 -0.5h199v-180h93q0 16 -0.5 91t1.5 89q23 1 42 0.5t32 -9.5t14 -27v0zM230 84q34 3 55 -23t9 -60
q-7 -18 -23.5 -28t-34.5 -8.5t-33.5 9.5t-23 26.5t-1.5 41.5q10 37 52 42v0zM830 -212h-100q1 9 0.5 53.5t1.5 52.5h98v-106v0zM1025 -106v-70q-5 -28 -33 -36h-70q0 9 -0.5 53.5t1.5 52.5h102v0zM1025 -106z" />
    <glyph glyph-name="dianying" unicode="&#xe633;" 
d="M920 721v-11q0 -16 -11 -26.5t-26 -10.5h-22q-15 0 -26 10.5t-11 26.5v21q0 8 3 15h-626q2 -7 2 -15v-21q0 -16 -10.5 -26.5t-26.5 -10.5h-21q-16 0 -26.5 10.5t-10.5 26.5v14q-42 -32 -42 -84v-681q0 -52 42 -84v14q0 16 10.5 26.5t26.5 10.5h21q16 0 26.5 -10.5
t10.5 -26.5v-21q0 -8 -2 -14h626q-3 6 -3 14v21q0 16 11 26.5t26 10.5h22q15 0 26 -10.5t11 -26.5v-11q38 31 38 81v681q0 50 -38 81zM203 36q0 -15 -10.5 -26t-26.5 -11h-21q-16 0 -26.5 11t-10.5 26v22q0 15 10.5 26t26.5 11h21q16 0 26.5 -11t10.5 -26v-22zM203 205
q0 -16 -10.5 -27t-26.5 -11h-21q-16 0 -26.5 11t-10.5 27v21q0 16 10.5 26.5t26.5 10.5h21q16 0 26.5 -10.5t10.5 -26.5v-21zM203 373q0 -15 -10.5 -26t-26.5 -11h-21q-16 0 -26.5 11t-10.5 26v22q0 15 10.5 26t26.5 11h21q16 0 26.5 -11t10.5 -26v-22zM203 541
q0 -15 -10.5 -26t-26.5 -11h-21q-16 0 -26.5 11t-10.5 26v22q0 15 10.5 26t26.5 11h21q16 0 26.5 -11t10.5 -26v-22zM774 -14q0 -31 -21.5 -52.5t-52.5 -21.5h-378q-31 0 -52.5 21.5t-21.5 52.5v203q0 31 21.5 52.5t52.5 21.5h378q31 0 52.5 -21.5t21.5 -52.5v-203zM774 395
q0 -31 -21.5 -53t-52.5 -22h-378q-31 0 -52.5 22t-21.5 53v203q0 31 21.5 52.5t52.5 21.5h378q31 0 52.5 -21.5t21.5 -52.5v-203zM920 36q0 -15 -11 -26t-26 -11h-22q-15 0 -26 11t-11 26v22q0 15 11 26t26 11h22q15 0 26 -11t11 -26v-22zM920 205q0 -16 -11 -27t-26 -11
h-22q-15 0 -26 11t-11 27v21q0 16 11 26.5t26 10.5h22q15 0 26 -10.5t11 -26.5v-21zM920 373q0 -15 -11 -26t-26 -11h-22q-15 0 -26 11t-11 26v22q0 15 11 26t26 11h22q15 0 26 -11t11 -26v-22zM920 541q0 -15 -11 -26t-26 -11h-22q-15 0 -26 11t-11 26v22q0 15 11 26t26 11
h22q15 0 26 -11t11 -26v-22z" />
    <glyph glyph-name="xiangshangjiantouarrowup" unicode="&#xe60b;" 
d="M880 -133q14 -14 33 -14t32.5 13.5t13.5 32.5t-14 32l-401 396q-13 13 -32.5 13t-32.5 -13l-401 -396q-14 -13 -14 -32t13.5 -32.5t32.5 -13.5t33 13l369 351l368 -350v0z" />
    <glyph glyph-name="weixin" unicode="&#xe603;" 
d="M669 495q14 0 30 -2q-20 95 -110.5 157.5t-206.5 62.5q-130 0 -222 -77.5t-92 -189.5q0 -124 126 -212l-31 -94l109 55q80 -16 110 -16q14 0 30 1q-10 33 -10 66q0 103 77.5 176t189.5 73zM500 580q18 0 28.5 -11t10.5 -28.5t-10.5 -28.5t-28.5 -11t-32.5 11.5
t-14.5 28.5t14.5 28t32.5 11zM280 501q-18 0 -32.5 11.5t-14.5 28.5t14.5 28t32.5 11t29 -11t11 -28.5t-11 -28.5t-29 -11zM956 250q0 93 -80 160.5t-187 67.5q-112 0 -189.5 -67t-77.5 -161.5t77.5 -161t189.5 -66.5q31 0 94 16l86 -47l-23 78q110 83 110 181zM602 289
q-11 0 -21 10t-10 21.5t10 21.5t21 10q17 0 28.5 -9.5t11.5 -22t-11.5 -22t-28.5 -9.5zM775 289q-12 0 -21.5 10t-9.5 21.5t9.5 21.5t21.5 10q17 0 28 -9.5t11 -22t-11 -22t-28 -9.5z" />
    <glyph glyph-name="quan1" unicode="&#xe64b;" 
d="M346 241h332q-72 43 -127 118h-59q-48 -69 -146 -118zM942 748h-860q-8 0 -13 -5t-5 -13v-860q0 -8 5 -13t13 -5h860q8 0 13 5t5 13v860q0 8 -5 13t-13 5zM883 359h-215q72 -88 215 -134v-65q-39 10 -104 33q-19 6 -29 9v-156q3 -111 -111 -108h-98v69h56q26 -2 38 8.5
t11 33.5v124h-186q16 -205 -297 -251v62q209 46 193 186v3h-92v29q-26 -13 -87 -32q-24 -10 -36 -13v68q159 59 228 134h-228v65h273q13 29 23 68h-264v65h91q-13 30 -29 95h98q10 -53 26 -95h91v56v65h111v-56q0 -35 -3 -65h101q19 42 26 95h94q-10 -59 -29 -95h101v-65
h-300q-10 -39 -23 -68h355v-65z" />
    <glyph glyph-name="qq" unicode="&#xe606;" 
d="M139 233q-24 -59 -27.5 -108t15.5 -60q13 -7 32.5 7.5t38.5 45.5q16 -66 72 -116q-29 -11 -45.5 -28.5t-16.5 -37.5q0 -34 43.5 -57.5t105.5 -23.5q56 0 97.5 19.5t50.5 48.5h18q8 -29 50 -48.5t98 -19.5q62 0 105.5 23.5t43.5 57.5q0 20 -16.5 37.5t-45.5 28.5
q56 50 71 116q20 -31 39 -45.5t32 -7.5q19 11 16 60t-27 108q-19 46 -42 78t-43 40q1 7 1 12q0 35 -17 64v4q0 16 -7 30q-5 125 -77.5 207t-190 82t-189.5 -82t-77 -207q-7 -14 -7 -30v-4q-17 -29 -17 -64q0 -5 1 -12q-20 -8 -43.5 -40t-41.5 -78z" />
    <glyph glyph-name="fenxiang" unicode="&#xe617;" 
d="M841 274q-44 0 -82 -19.5t-64 -53.5l-264 124q8 30 8 59t-8 59l264 124q26 -34 64 -53.5t82 -19.5q76 0 129.5 53.5t53.5 129t-53.5 129t-129.5 53.5t-129.5 -53.5t-53.5 -128.5q0 -20 6 -43l-264 -125q-31 44 -78.5 69t-102.5 25q-90 0 -154.5 -64t-64.5 -155t64.5 -155
t154.5 -64q55 0 102.5 25t78.5 69l264 -125q-6 -23 -6 -43q0 -75 53.5 -128.5t129.5 -53.5t129.5 53.5t53.5 129t-53.5 129t-129.5 53.5zM841.5 786q45.5 0 77.5 -32t32 -77.5t-32 -77.5t-77.5 -32t-78 32t-32.5 77.5t32.5 77.5t78 32zM219.5 238q-60.5 0 -103.5 43t-43 103
t43 103t103.5 43t103.5 -43t43 -103t-43 -103t-103.5 -43zM841.5 -18q-45.5 0 -78 32t-32.5 77.5t32.5 77.5t78 32t77.5 -32t32 -77.5t-32 -77.5t-77.5 -32z" />
    <glyph glyph-name="lvxing" unicode="&#xe609;" 
d="M501 34q-219 -38 -389 -114h767q0 3 -1 8t-6.5 19.5t-14.5 27.5t-28 28.5t-43.5 26.5t-64 17.5t-86.5 4.5q21 164 81 302q-2 37 1 66q-12 -7 -33 -18q-76 -160 -99 -355q-18 -2 -36 -5q-22 168 -79 303q-34 10 -56 22q0 -1 -2 -13q65 -138 89 -320v0zM580 342
q28 -18 43 -45q-2 34 -16 63q-15 -9 -27 -18v0zM714 153q51 22 84 66.5t44 96t9.5 101t-15.5 89.5q18 -42 46.5 -86t50 -72t38 -61t17.5 -62q13 103 -27 190t-113 126q89 -26 133 -81q0 31 -20 62.5t-52 46.5t-70 -1q14 19 15.5 47.5t-8 54.5t-31 45t-49.5 20q22 -13 28 -39
t3.5 -66.5t-0.5 -54.5q-17 65 -86 112.5t-145 33.5q15 -26 44 -46.5t57.5 -32t62 -30t54.5 -39.5q-83 54 -177 52t-143 -54q31 13 62 8t59.5 -18t76 -18.5t110.5 6.5q-39 -9 -65 -16.5t-61 -24t-57.5 -37.5t-41.5 -55.5t-25 -78.5q12 24 67.5 55.5t116 65.5t80.5 60
q-23 -44 -29.5 -89.5t-2.5 -80.5t6.5 -68.5t-7.5 -66t-39 -60.5v0zM396 505q15 19 27 46.5t23.5 44.5t33.5 24q-31 8 -66.5 -8.5t-55 -49t-7.5 -65.5q-39 32 -74 30t-61 -26.5t-36 -59.5q10 14 28 21.5t37.5 8.5t41 1.5t38.5 0.5q-79 -10 -132 -57t-52 -123q13 16 37.5 31.5
t48 27.5t56.5 38.5t63 62.5q-40 -62 -48 -162t25 -180q-7 31 2.5 78.5t25 88t25 87t3.5 76.5q21 -24 47.5 -38t65.5 -26q9 37 27 68q-41 22 -105 38q24 -1 34.5 -2t32 2t30 4.5t27.5 5.5t25 5q12 12 27 22q-20 6 -27 9q-52 21 -92 16q-42 -13 -75 -40v0zM396 505z" />
    <glyph glyph-name="shoucang" unicode="&#xf0114;" 
d="M510 753q15 0 21 -12l97 -198q9 -18 29 -21l224 -33q14 -2 18 -14t-5 -20l-164 -161q-14 -14 -11 -33l38 -222q2 -13 -9 -20q-6 -4 -13 -4q-6 0 -12 3l-195 102q-9 5 -18.5 5t-18.5 -5l-195 -102q-5 -3 -11 -3q-8 0 -14 4q-11 7 -9 20l38 222q3 19 -11 33l-164 161
q-9 8 -5 20t18 14l224 33q20 3 29 21l98 198q6 12 21 12zM510 791q-18 0 -33.5 -9t-23.5 -25l-97 -197l-223 -33q-18 -2 -31 -13t-19 -27q-12 -34 14 -60l164 -160l-38 -222q-6 -36 26 -58q16 -10 36 -10q15 0 30 7l195 103l195 -103q14 -7 30 -7q19 0 35 10q32 22 26 58
l-38 222l164 160q26 26 14 60q-5 16 -18.5 27t-30.5 13l-224 33l-97 197q-8 16 -23 25t-33 9v0z" />
    <glyph glyph-name="erweima1" unicode="&#xe629;" horiz-adv-x="1025" 
d="M815 -175zM778 -175.5q0 15.5 11 26t26 10.5t25.5 -10.5t10.5 -26t-10.5 -26t-25.5 -10.5t-26 10.5t-11 26zM986 -175zM949 -175.5q0 15.5 10.5 26t26 10.5t26 -10.5t10.5 -26t-10.5 -26t-26 -10.5t-26 10.5t-10.5 26zM951 335h-878q-15 0 -25 -10t-10 -24.5t10 -25
t25 -10.5h878q15 0 25 10.5t10 24.5t-10 24.5t-25 10.5zM512 -42q-14 0 -24.5 -10.5t-10.5 -24.5v-100q0 -15 10.5 -25t24.5 -10t24.5 10t10.5 25v100q0 14 -10.5 24.5t-24.5 10.5zM512 185q-14 0 -24.5 -10t-10.5 -25v-100q0 -14 10.5 -24.5t24.5 -10.5t24.5 10.5
t10.5 24.5v100q0 15 -10.5 25t-24.5 10zM666.5 101q-14.5 0 -25 -10t-10.5 -25v-100q0 -14 10.5 -24.5t25 -10.5t24.5 10.5t10 24.5v100q0 15 -10 25t-24.5 10zM512 799q-14 0 -24.5 -10.5t-10.5 -24.5v-302q0 -15 10.5 -25t24.5 -10t24.5 10t10.5 25v302q0 14 -10.5 24.5
t-24.5 10.5zM262 812h-131q-54 0 -92.5 -38.5t-38.5 -92.5v-131q0 -54 38.5 -92.5t92.5 -38.5h131q54 0 92.5 38.5t38.5 92.5v131q0 54 -38.5 92.5t-92.5 38.5zM325 551q0 -26 -19 -45t-46 -19h-128q-26 0 -45 19t-19 45v129q0 26 19 45t45 19h128q27 0 46 -19t19 -45v-129
v0zM267 181h-131q-54 0 -92.5 -38.5t-38.5 -92.5v-131q0 -54 38.5 -92.5t92.5 -38.5h131q54 0 92.5 38.5t38.5 92.5v131q0 54 -38.5 92.5t-92.5 38.5zM330 -80q0 -26 -19 -45t-46 -19h-128q-26 0 -45 19t-19 45v129q0 26 19 45t45 19h128q27 0 46 -19t19 -45v-129v0z
M893 812h-131q-54 0 -92.5 -38.5t-38.5 -92.5v-131q0 -54 38.5 -92.5t92.5 -38.5h131q54 0 92.5 38.5t38.5 92.5v131q0 54 -38.5 92.5t-92.5 38.5zM956 551q0 -26 -19 -45t-45 -19h-129q-26 0 -45 19t-19 45v129q0 26 19 45t45 19h129q26 0 45 -19t19 -45v-129zM842 181
q-26 0 -45 -19t-19 -45v-107q0 -27 19 -45.5t45 -18.5h116q27 0 45.5 18.5t18.5 45.5v107q0 26 -18.5 45t-45.5 19h-116zM969 61q0 -26 -19 -45t-45 -19h-10q-26 0 -45 19t-19 45v5q0 26 19 45t45 19h10q26 0 45 -19t19 -45v-5v0z" />
    <glyph glyph-name="shezhi" unicode="&#xe637;" 
d="M583 697q17 -66 72 -109t125 -43q27 0 53 7l60 -105q-61 -60 -61 -145t61 -145l-60 -105q-26 7 -53 7q-70 0 -125 -43t-72 -109h-117q-17 66 -72 109t-125 43q-27 0 -53 -7l-60 105q61 60 61 145t-61 145l60 105q26 -7 53 -7q70 0 125 43t72 109h117zM628 748h-207
q0 -63 -44.5 -107.5t-107.5 -44.5q-40 0 -75 20l-104 -182q34 -20 55 -55t21 -77t-21 -77t-55 -55l104 -182q35 20 75 20q63 0 107.5 -44.5t44.5 -107.5h207q0 63 44.5 107.5t107.5 44.5q40 0 75 -20l104 182q-34 20 -55 55t-21 77t21 77t55 55l-104 182q-35 -20 -75 -20
q-63 0 -107.5 44.5t-44.5 107.5v0zM524.5 174q-52.5 0 -90 37.5t-37.5 90.5t37.5 90.5t90 37.5t90 -37.5t37.5 -90.5t-37.5 -90.5t-90 -37.5zM524.5 379q-31.5 0 -54 -22.5t-22.5 -54.5t22.5 -54.5t54 -22.5t54 22.5t22.5 54.5t-22.5 54.5t-54 22.5z" />
    <glyph glyph-name="zhengque1" unicode="&#xe645;" 
d="M512 749q-91 0 -173.5 -35t-142.5 -95t-95.5 -143t-35.5 -174t35.5 -174t95.5 -143t142.5 -95.5t173.5 -35.5t174 35.5t143 95.5t95.5 143t35.5 174t-35.5 174t-95.5 143t-143 95t-174 35v0zM512 -90q-106 0 -196 52.5t-142.5 143t-52.5 196.5t52.5 196.5t142.5 142.5
t196.5 52t196.5 -52t142.5 -142.5t52.5 -196.5t-52.5 -196.5t-142.5 -143t-197 -52.5v0zM459 101l-210 203l52 54l154 -148l265 292l56 -50zM459 101z" />
    <glyph glyph-name="dianhua" unicode="&#xe63f;" 
d="M753 -212q-80 0 -211 81q-125 77 -244 193v0l-24 24q-116 119 -193 244q-81 131 -81 211q0 78 72 175q14 18 30 36t45 39t52 21q30 0 72 -44q31 -32 67 -83q34 -49 57 -92q27 -51 27 -76q0 -33 -34 -56q-15 -10 -49 -25q-30 -13 -37 -19q6 -24 42 -77q43 -63 93 -115
q52 -50 115 -93q53 -36 77 -42q6 7 19 37q15 34 25 49q23 34 56 34q25 0 76 -27q43 -23 92 -57q51 -36 83 -67q44 -42 44 -72q0 -23 -21 -52t-39 -45t-36 -30q-97 -72 -175 -72v0zM341 105q114 -111 232 -185q117 -72 180 -72q57 0 135 59q34 24 56 50q16 18 19 29
q-5 11 -32 36t-74 58q-43 30 -81 50q-33 17 -47 19q-4 -2 -9.5 -11.5t-16.5 -34.5q-13 -31 -21 -43q-20 -31 -49 -31h-1q-38 1 -114 53q-68 46 -123 100l-1 1q-54 55 -100 123q-52 76 -53 114q-1 29 30 50q13 8 44 21q25 11 34.5 16.5t11.5 9.5q-2 14 -19 47q-20 38 -50 81
q-33 47 -58 74t-36 32q-11 -3 -29 -19q-26 -22 -50 -56q-59 -78 -59 -135q0 -63 72 -180q74 -118 185 -232l24 -24v0zM341 105z" />
    <glyph glyph-name="qq1" unicode="&#xe630;" 
d="M860 228q-17 42 -42 76q22 17 22 55q0 26 -11.5 44t-27.5 18q3 20 3 40q0 118 -84 202t-203.5 84t-203.5 -84t-84 -202q0 -22 3 -44q-24 -16 -24 -58q0 -22 9 -39q-29 -32 -51 -75q-19 -38 -25.5 -78t-1.5 -66t18 -33q9 -5 32 10.5t47 44.5q8 -70 62 -125
q-43 -12 -68 -35t-21 -48q5 -31 51.5 -49t108.5 -11q44 5 78.5 21t49.5 38h15q13 0 26 1q16 -21 49 -36.5t74 -21.5q59 -7 104 10t49 48q4 25 -20.5 48t-65.5 37q50 51 60 117q22 -31 42.5 -48t32.5 -14q9 2 15 27t2 66t-20 80z" />
    <glyph glyph-name="hui" unicode="&#xe608;" 
d="M486 390h-209v49h209v-49zM746 350h-209v-50h209v50zM746 439h-209v-49h209v49zM486 350h-209v-50h209v50zM959 661v-721q0 -37 -25.5 -62t-61.5 -25h-721q-36 0 -61.5 25t-25.5 62v721q0 36 25.5 61.5t61.5 25.5h721q36 0 61.5 -25.5t25.5 -61.5zM486 258v-59
q-156 -1 -318 -1l4 -54q402 12 592 15q29 -28 55 -57l44 35q-57 55 -134 118l-38 -30q7 -6 27 -23q-89 -1 -181 -3v59h260v224h-260v50h318v46h-318v61h-51v-61h-318v-46h318v-50h-260v-241h51v17h209zM494 149l-39 -29q45 -48 81 -93l44 34q-32 39 -86 88zM275 99l-51 21
q-29 -78 -70 -139q25 -14 49 -27q37 60 72 145zM707 75q-46 18 -54 21q-3 -42 -10 -70q-7 -33 -57 -33h-153q-50 0 -50 44v81h-56v-86q0 -90 92 -90h177q84 0 98 63q8 30 13 70zM870 -3q-57 71 -96 114l-41 -30q57 -68 92 -117z" />
    <glyph glyph-name="iconfontweixin" unicode="&#xe658;" 
d="M693 453q15 0 35 -2q-23 109 -127.5 181.5t-238.5 72.5q-98 0 -181 -40.5t-132 -111.5t-49 -156q0 -143 145 -245l-36 -109l127 64q6 -2 25 -5.5t27 -5t22.5 -4t26.5 -3t25 -0.5q16 0 34 1q-11 38 -11 76q0 119 89.5 203t218.5 84zM498 551q21 0 33.5 -12.5t12.5 -33
t-12.5 -33t-33.5 -12.5t-37.5 13t-16.5 32.5t16.5 32.5t37.5 13zM245 460q-22 0 -38.5 13t-16.5 32.5t16.5 32.5t38.5 13q20 0 32.5 -12.5t12.5 -33t-12.5 -33t-32.5 -12.5zM1024 170q0 71 -43 132t-113.5 96t-151.5 35q-129 0 -218.5 -77t-89.5 -186t89.5 -186t218.5 -77
q37 0 109 18l99 -54l-27 90q127 96 127 209zM616 216q-13 0 -24.5 11t-11.5 24.5t11.5 25t24.5 11.5q20 0 33 -11t13 -25.5t-13 -25t-33 -10.5zM815 216q-13 0 -24.5 11t-11.5 24.5t11.5 25t24.5 11.5q20 0 33 -11t13 -25.5t-13 -25t-33 -10.5z" />
    <glyph glyph-name="tuikuan" unicode="&#xf0167;" 
d="M936.5 464.5q-6.5 5.5 -15.5 4.5t-14 -8l-36 -45q-2 27 -7 52q-22 107 -92.5 186t-171 112.5t-206 11.5t-184.5 -93t-112.5 -172t-11.5 -207.5t93 -186t171.5 -113t205.5 -11.5q114 24 198 109h1q0 1 0.5 2t1.5 1q2 5 2 9q0 7 -5 12t-12 5t-13 -5v0q-76 -77 -179 -98
q-96 -20 -187 10.5t-155 102t-84 168t10.5 188t101.5 156t167 84.5t186.5 -10.5t154.5 -102.5t84 -168q5 -22 7 -45l-44 35q-6 6 -15 5t-14 -8t-4.5 -15.5t7.5 -14.5v0l80 -64v0q7 -6 16 -5t14 8v0l65 80v1q5 6 4 15t-7.5 14.5zM464 165q0 -7 5 -12.5t12.5 -5.5t13 5.5
t5.5 12.5v0v108h109v0q8 0 13 5.5t5 13t-5 13t-13 5.5h-109v56h109v0v0q8 0 13 5t5 12.5t-5 13t-13 5.5h-109v33l108 106v1q6 5 6.5 12.5t-4.5 13t-12.5 6t-13.5 -4.5l-102 -101l-107 106q-5 5 -12.5 4.5t-12.5 -6.5t-4.5 -13.5t5.5 -12.5v0l113 -110v-34h-110v0
q-7 0 -12.5 -5.5t-5.5 -13t5.5 -12.5t12.5 -5v0h110v-56h-110v-1q-7 0 -12.5 -5t-5.5 -12.5t5.5 -13t12.5 -5.5v0h110v-108v0z" />
    <glyph glyph-name="fenxiang1" unicode="&#xe60a;" 
d="M743 166q-45 0 -82.5 -22.5t-58.5 -59.5l-199 106q22 38 22 82q0 31 -12 60l220 140q48 -62 127 -62q67 0 114 47t47 113.5t-47 114t-114 47.5t-114 -47.5t-47 -113.5q0 -31 11 -59l-220 -140q-49 61 -126 61q-67 0 -114 -47.5t-47 -114t47 -114t114 -47.5q63 0 110 44
l211 -114q-3 -17 -3 -35q0 -66 47 -113.5t113.5 -47.5t114 47.5t47.5 114t-47.5 113.5t-113.5 47zM760 681q46 0 78.5 -32t32.5 -78t-32.5 -78.5t-78.5 -32.5t-78 32.5t-32 78.5t32 78t78 32zM264 161q-46 0 -78.5 32.5t-32.5 78t32.5 78t78.5 32.5t78.5 -32.5t32.5 -78
t-32.5 -78t-78.5 -32.5zM743 -105q-46 0 -78.5 32t-32.5 78t32.5 78.5t78.5 32.5t78 -32.5t32 -78.5t-32 -78t-78 -32z" />
    <glyph glyph-name="shiliangzhinengduixiang" unicode="&#xe62d;" 
d="M512 -212q-104 0 -199 40.5t-163.5 109t-109 163.5t-40.5 199t40.5 199t109 163.5t163.5 109t199 40.5t199 -40.5t163.5 -109t109 -163.5t40.5 -199t-40.5 -199t-109 -163.5t-163.5 -109t-199 -40.5v0zM512 739q-89 0 -170 -35t-140 -94t-94 -140t-35 -170t35 -170
t94 -140t140 -94t170 -35t170 35t140 94t94 140t35 170t-35 170t-94 140t-140 94t-170 35v0zM758 436q-11 10 -26 10t-26 -11l-267 -269l-118 121q-10 11 -25.5 11.5t-26 -10.5t-11 -26t10.5 -26l144 -148v0v0q2 -2 8 -5l2 -2t2 -1q7 -3 14 -3t14 3q1 0 2 1t2 1q6 4 8 6v0v0
l293 296q11 11 10.5 26t-10.5 26v0zM758 436z" />
    <glyph glyph-name="jiudian" unicode="&#xe68a;" 
d="M61 -153h451v903h-451v-903v0zM339 638h113v-113h-113v113v0zM339 411h113v-112h-113v112v0zM339 187h113v-113h-113v113v0zM117 638h113v-113h-113v113v0zM117 411h113v-112h-113v112v0zM117 187h113v-113h-113v113v0zM568 464h395v-52h-395v52v0zM568 -153h113v198h170
v-198h112v503h-395v-503zM568 -153z" />
    <glyph glyph-name="lvxing1" unicode="&#xe607;" 
d="M164 559q0 -5 -4 -9t-10 -4h-105q-5 0 -9.5 4t-4.5 9v36q0 6 4.5 10t9.5 4h105q6 0 10 -4t4 -10v-36zM438 525q0 -6 -4 -10t-10 -4h-53q-6 0 -10 4t-4 10v24q0 6 4 10t10 4h53q6 0 10 -4t4 -10v-24zM861 525q0 -6 -4 -10t-10 -4h-53q-6 0 -10 4t-4 10v24q0 6 4 10t10 4
h53q6 0 10 -4t4 -10v-24zM546 541v80h127v-80h39v78q0 19 -13.5 33t-32.5 14h-113q-20 0 -33.5 -14t-13.5 -33v-78h40zM881 543v-29q0 -10 -6.5 -16.5t-16.5 -6.5h-74q-9 0 -16 6.5t-7 16.5v29h-306v-26q0 -9 -6.5 -16t-16.5 -7h-71q-10 0 -16.5 7t-6.5 16v26h-1
q-19 0 -32.5 -13.5t-13.5 -32.5v-341q0 -19 13.5 -32.5t32.5 -13.5h540q19 0 32.5 13.5t13.5 32.5v341q0 18 -12 31t-30 15zM413 144h-36v328h36v-328zM841 144h-37v328h37v-328zM275 85v1l-65 506h-32v-24h16l63 -507h703v24h-685zM415 12h361v-24h-361v24zM318 7
q-22 0 -38 -15.5t-16 -38t16 -38t38 -15.5t38 15.5t16 38t-16 38t-38 15.5zM320 -80q-14 0 -24 10t-10 24t10 24t24 10t23.5 -10t9.5 -24t-9.5 -24t-23.5 -10zM320 -46zM299 -46q0 9 6 15t14.5 6t14.5 -6t6 -15t-6 -15t-14.5 -6t-14.5 6t-6 15zM876.5 7q-22.5 0 -38 -15.5
t-15.5 -38t15.5 -38t38 -15.5t38 15.5t15.5 38t-15.5 38t-38 15.5zM878 -80q-14 0 -24 10t-10 24t10 24t24 10t24 -10t10 -24t-10 -24t-24 -10zM878 -46zM857 -46q0 9 6 15t15 6t15 -6t6 -15t-6 -15t-15 -6t-15 6t-6 15zM319 23q22 0 40 -13l14 34h-109l13 -36q18 15 42 15z
M879 19q22 0 40 -13l13 35h-108l12 -36q19 14 43 14z" />
    <glyph glyph-name="iconjinggao01" unicode="&#xe60d;" 
d="M921 -109h-818q-21 0 -33 19q-6 8 -6 18t6 19l408 743q12 17 34 17t33 -17l409 -743q13 -19 0.5 -37.5t-33.5 -18.5zM166 -35h692l-346 629zM512 151q-17 0 -27 10.5t-10 26.5v186q0 17 10 27t27 10t27 -10t10 -27v-186q0 -16 -10 -26.5t-27 -10.5zM512 77zM475 77
q0 15 10.5 26t26 11t26.5 -11t11 -26t-11 -26t-26.5 -11t-26 11t-10.5 26zM512 21q-22 0 -39 17t-17 39t17 39t39 17t39 -17t17 -39t-17 -39t-39 -17zM512 95q-8 0 -13.5 -5t-5.5 -13t5.5 -13.5t13.5 -5.5t13 5.5t5 13.5t-5 13t-13 5z" />
    <glyph glyph-name="shezhi1" unicode="&#xe611;" 
d="M654 -85v0q-23 0 -37.5 15.5t-38.5 32t-46 16.5q-20 0 -44.5 -16.5t-38.5 -30.5q-15 -16 -38 -16q-10 0 -19 4h-1l-98 54l-1 1q-14 9 -18.5 25t2.5 31q9 18 9 39q0 42 -30.5 71.5t-73.5 29.5h-3h-1v0q-12 0 -21.5 10t-12.5 27q-8 43 -8 77q0 33 8 76q3 17 12.5 27
t22.5 10h3q43 0 73.5 30t30.5 72q0 19 -9 39q-7 14 -2 30t18 25l1 1l104 56h1q8 4 19 4q23 0 37 -15q15 -15 38.5 -30t44 -15t44 15t37.5 29q15 15 38 15q10 0 19 -4h1l100 -55l1 -1q14 -9 18.5 -25t-2.5 -30q-9 -20 -9 -39q0 -42 30.5 -72t73.5 -30h3q13 0 22.5 -10
t12.5 -27q9 -43 9 -76q0 -35 -9 -77q-3 -17 -12.5 -27t-22.5 -10h-3q-43 0 -73.5 -29.5t-30.5 -71.5q0 -20 9 -39q7 -15 2.5 -31t-18.5 -25l-1 -1l-102 -55h-1q-8 -4 -19 -4v0v0zM651 -38q2 -1 3 -1h1l95 52q-13 29 -13 57q0 59 41.5 101.5t101.5 45.5q7 40 7 67.5t-7 67.5
q-60 3 -101.5 46t-41.5 102q0 28 13 57l-94 51v0q-2 0 -4 -1q-14 -15 -34 -29q-44 -30 -81 -30q-38 0 -82 31q-21 14 -35 29q-1 1 -3 1h-1l-97 -52q13 -29 13 -57q0 -59 -41.5 -102t-101.5 -46q-7 -40 -7 -67t7 -68q60 -3 101.5 -45.5t41.5 -101.5q0 -28 -13 -57l92 -51v0
q2 0 3 1q15 16 35 30q45 32 83 32q40 0 84 -32q21 -15 35 -31v0v0zM533 150q-58 0 -98.5 39.5t-40.5 95.5t40.5 96t98 40t98 -40t40.5 -96t-40.5 -95.5t-97.5 -39.5v0v0zM533 375q-38 0 -65 -26.5t-27 -63.5t27 -63t65 -26t64.5 26t26.5 63t-26.5 63.5t-64.5 26.5v0v0z
M533 375z" />
    <glyph glyph-name="liren" unicode="&#xe60c;" 
d="M857 607q-30 29 -69 34.5t-74.5 -8.5t-66.5 -41q-101 93 -211.5 99.5t-241.5 -73.5q-33 -22 -52 -40l-9 -9l11 -6q5 -3 12.5 -8.5t21 -24.5t15.5 -41q1 -19 -12 -41t-32 -40t-38.5 -33t-33 -23.5l-13.5 -8.5l71 -32q-7 -31 -10 -52.5t1 -59.5t22 -70q20 -25 49 -27
q18 -1 47 -1h18h18q39 0 67 -3.5t42 -8t24 -13t12 -13t5 -13.5q30 -82 37 -131l1 -8h200h43q-4 11 -20 38t-29 53t-24.5 56.5t-9 59t20.5 49.5q68 89 80 199q6 57 -8 107q-11 41 -39 80q80 58 124 20q20 -17 21.5 -50.5t-11 -71.5t-33 -84t-41 -86t-37.5 -78.5t-21 -59.5
q-13 -56 -0.5 -90.5t37.5 -53t61 -19.5t70.5 9.5t64.5 34.5t44 56q-7 -10 -31.5 -15.5t-53.5 -2.5t-54.5 16.5t-34.5 42t6 74.5q13 36 43.5 108t38.5 101q24 84 18.5 129t-36.5 74v0zM857 607z" />
    <glyph glyph-name="fenxiang2" unicode="&#xe638;" 
d="M767 214q-44 0 -82 -21.5t-62 -57.5l-183 105q19 38 19 77q0 23 -8 49l191 109q51 -55 125 -55q71 0 121.5 50t50.5 121t-50.5 121.5t-121.5 50.5t-121 -50.5t-50 -121.5q0 -22 8 -49l-191 -109q-51 55 -125 55q-71 0 -121.5 -50t-50.5 -121t50.5 -121t121.5 -50
q56 0 103 35l-1 -1l208 -119q-2 -17 -2 -18q0 -71 50 -121.5t121 -50.5t121.5 50.5t50.5 121.5t-50.5 121t-121.5 50zM767.5 694q42.5 0 72.5 -30t30 -72.5t-30 -73t-72.5 -30.5t-72.5 30.5t-30 73t30 72.5t72.5 30zM287.5 214q-42.5 0 -72.5 30t-30 73t30 73t72.5 30
t72.5 -30t30 -73t-30 -73t-72.5 -30zM767.5 -60q-42.5 0 -72.5 30t-30 72.5t30 73t72.5 30.5t72.5 -30.5t30 -73t-30 -72.5t-72.5 -30z" />
    <glyph glyph-name="sina" unicode="&#xe698;" 
d="M820 702q-59 14 -138 -1l-1.5 -0.5l-1.5 -0.5l-1 -1q-13 -4 -21.5 -14.5t-8.5 -24.5q0 -17 12 -28.5t29 -11.5q21 3 36 8q6 1 20.5 2.5t38.5 -4.5t48 -15.5t49.5 -30.5t42.5 -50q31 -70 13 -134q-8 -19 -8 -39q0 -16 11.5 -26t28.5 -10t26 6.5t12 27.5h1q21 65 16 118
t-23 92t-49.5 67.5t-64 45t-67.5 24.5zM841 379q10 0 17.5 7t9.5 16v3q14 131 -88 152q-34 7 -64 2q-11 0 -19 -8.5t-8 -20t8 -19.5t19 -8q37 7 58 0.5t29.5 -22.5t10.5 -32.5t1 -29.5l-2 -12q0 -12 8 -20t20 -8zM368 271q-35 -4 -61.5 -16t-42 -28t-26 -34t-14.5 -35.5
t-5 -32t-1 -23t1 -8.5v-6.5t2 -13.5t6.5 -19t14 -19.5t22.5 -17.5q47 -26 97 -26.5t89 18.5t66 53q15 20 20.5 49t-2.5 59t-26.5 54.5t-55 38t-84.5 7.5zM325.5 49.5q-23.5 -2.5 -40.5 9.5t-17 31q0 21 15.5 38t38.5 19q27 3 43.5 -10t16.5 -33t-16.5 -36t-40 -18.5z
M425 134q-8 -6 -16.5 -5t-13.5 8q-4 7 -2 16.5t9 15.5q10 7 18.5 6t13 -8.5t2 -17t-10.5 -15.5zM758 311q-17 3 -22.5 10.5t-1.5 12.5l4 6q2 3 4 7.5t6.5 18t5 26.5t-5 29.5t-18.5 29.5q-33 28 -77 24t-82.5 -16.5t-38.5 -14.5q-12 -4 -19.5 -5.5t-12 0.5t-6.5 4t-1.5 8
t1 10.5t3 14.5t3.5 16q0 18 -2.5 33t-12.5 31.5t-26.5 25t-47 8t-71.5 -14.5q-40 -14 -82 -41.5t-73.5 -57.5t-57 -58t-39.5 -45.5l-14 -17.5q-23 -32 -39.5 -65t-23 -55.5t-9 -43.5t-2.5 -28v-10v0q7 -56 34.5 -100.5t65.5 -72t89.5 -47t99 -28t100.5 -13.5
q87 -6 179.5 14.5t173 71t113.5 120.5q19 41 19.5 77t-12 59t-33 40.5t-38.5 25.5t-33 11zM401 -53q-125 -6 -214 49t-89 139t88 144t215 66q129 6 216.5 -42.5t87.5 -130.5q0 -85 -89.5 -152t-214.5 -73z" />
    <glyph glyph-name="xingzhuang3kaobei" unicode="&#xe942;" 
d="M528 -124q-7 -4 -16 -4t-16 4l-27.5 17.5t-57.5 42.5t-78.5 67t-82 89t-76.5 110t-53.5 129.5t-21.5 148.5q0 113 55.5 209t150.5 151.5t207 55.5t207 -55.5t150.5 -151.5t55.5 -209q0 -75 -21.5 -148.5t-53.5 -129.5t-76.5 -110t-82 -89t-78.5 -67t-57.5 -42.5zM512 832
q-95 0 -175.5 -47t-127 -128.5t-46.5 -176.5q0 -59 16 -118.5t40.5 -107t59 -93.5t66 -79t67.5 -64t58 -47t42 -29q31 20 64.5 46t88 80t95 111t71 138t30.5 163q0 95 -46.5 176.5t-127 128.5t-175.5 47zM512 384q-39 0 -67 28t-28 68t28 68t67 28t67 -28t28 -68t-28 -68
t-67 -28z" />
    <glyph glyph-name="shoucang1" unicode="&#xe60e;" 
d="M752 -127q-16 0 -30 7l-208 103l-209 -103q-15 -8 -34 -6.5t-34 11.5q-15 11 -22 28.5t-4 35.5l43 225l-164 153q-30 29 -17 68q6 18 20 30t32 15l229 42l102 208q18 37 58 37q19 0 35 -10t24 -27l102 -208l229 -41q18 -3 32 -15t20 -30q6 -17 1.5 -35.5t-17.5 -31.5
l-166 -155l42 -224q3 -19 -4 -36.5t-22 -28.5q-17 -12 -38 -12v0zM514 35l228 -114q12 -6 21.5 1.5t7.5 19.5l-46 248l183 173q8 8 5 19q-4 12 -16 14l-252 44l-113 230q-5 10 -17.5 10t-17.5 -10l-113 -229l-251 -47q-13 -2 -17 -13q-4 -12 5 -20l183 -171l-48 -249
q-2 -11 8 -18q10 -8 20 -2l230 114v0zM514 35z" />
    <glyph glyph-name="yue" unicode="&#xe664;" 
d="M512 797q-104 0 -198 -40t-162.5 -108.5t-108.5 -162.5t-40 -198t40 -198t108.5 -162.5t162.5 -108.5t198 -40t198 40t162.5 108.5t108.5 162.5t40 198t-40 198t-108.5 162.5t-162.5 108.5t-198 40v0zM680 224q17 0 29 -12t12 -29t-12 -29t-29 -12h-127v-106
q0 -17 -12 -29t-29 -12t-29 12t-12 29v106h-127q-17 0 -29 12t-12 29t12 29t29 12h127v61h-127q-17 0 -29 12t-12 29t12 29t29 12h91l-110 129q-11 13 -10 30t14 28v0q13 11 30 9.5t28 -14.5l125 -145l125 145q11 13 28 14.5t30 -9.5v0q13 -11 14 -28t-10 -30l-110 -129h91
q17 0 29 -12t12 -29t-12 -29t-29 -12h-127v-61h127zM680 224z" />
    <glyph glyph-name="xing" unicode="&#xe625;" 
d="M648 452l309 -47l-223 -229l52 -324l-276 153l-276 -153l52 324l-223 229l309 47l138 294z" />
    <glyph glyph-name="tuan1" unicode="&#xe666;" 
d="M810 672q18 0 33.5 -6.5t27.5 -18.5q11 -12 18 -27.5t7 -32.5v-598q0 -17 -7 -32.5t-18 -27.5q-12 -12 -27.5 -18.5t-33.5 -6.5h-597q-18 0 -33.5 6.5t-26.5 18.5q-12 12 -18.5 27.5t-6.5 32.5v598q0 17 6.5 32.5t18.5 27.5q11 12 26.5 18.5t33.5 6.5h597zM796 -11v598
h-567v-598h64v27h436v-27h67zM304 72h-12v457h437v-457h-425v0zM332 368h185v-1h-1q-20 -26 -44 -50t-50 -46q-26 -21 -52.5 -39t-52.5 -31q5 -5 11 -10.5t12 -11.5l10 -12q5 -5 8 -10q23 13 46.5 28.5t46.5 33.5t45 38.5t42 42.5v-129q0 -3 -0.5 -5.5t-1.5 -3.5
q-2 -1 -4 -1.5t-5 -0.5q-3 -1 -9 -1h-16h-18q-11 1 -22 1q3 -6 6 -13t6 -15q3 -7 5.5 -14.5t3.5 -13.5h30q13 0 24 2q11 1 20 3t17 6q7 3 12 8t8 11q3 7 4.5 16t1.5 20v187v11h94v55h-94v81h-62v-81h-206v-55z" />
    <glyph glyph-name="shezhi2" unicode="&#xe70d;" 
d="M954 390q0 16 -11.5 27t-33.5 11t-47.5 14t-42.5 31q-16 21 -21 52t8 57q11 14 7 30.5t-9 25.5t-10 14q-6 6 -55.5 33t-66.5 31q-15 10 -29.5 8t-22 -5.5t-12.5 -8.5q-4 -5 -12 -13t-29.5 -22t-41.5 -17q-14 -2 -28 2.5t-23 11t-25.5 19t-26.5 19.5q-17 14 -33.5 16.5
t-24 -1.5t-12.5 -9l-109 -58q-12 -6 -20 -25t1 -45q10 -24 10 -41.5t-10 -41.5q-20 -54 -90 -77q-3 0 -11.5 1t-13.5 0.5t-12.5 -3t-14 -10t-12.5 -20.5q-8 -39 -7 -97.5t7 -88.5q10 -48 52 -38q18 0 45 -11.5t44 -33.5q15 -21 20 -44t2.5 -40t-9.5 -31q-8 -20 -3 -39.5
t16 -24.5q3 -2 44.5 -24t64.5 -34q40 -24 70 7q58 57 96 57q45 0 102 -57q14 -13 35 -16t29 3q39 19 103 58q47 23 32 70q-10 29 -10 51.5t10 50.5q9 24 37 44t52 20q27 0 40.5 9t17.5 36q4 40 1.5 95.5t-7.5 71.5zM902 223v0h-6q-41 -5 -81 -32t-53 -64q-26 -68 -7 -134v0
q-6 -7 -13 -7q-7 -3 -45.5 -25t-50.5 -26v0h-6q-70 71 -141 71v0q-51 0 -121 -71v0v0q-7 0 -13 7q-22 8 -50.5 24t-45.5 27v6q14 29 14 72.5t-33 94.5q-23 32 -60.5 51t-67.5 19v0q-7 32 -7 64q0 23 1.5 40.5t3.5 26t2 10.5v0h19q20 4 43.5 15t51 36t39.5 58q7 21 10 37
t1 36t-11 42v13q13 7 38 20.5t43.5 23.5t21.5 13v0h6h6q26 -21 40.5 -31.5t39.5 -21.5t48 -11h13q62 10 115 64h7q38 -19 77 -45q4 -2 10 -4t9 -4l6 -4v0v0q-18 -45 -12 -91t31 -76q21 -26 56.5 -45t71.5 -19q6 -24 7.5 -73t-7.5 -87zM512 454q-62 0 -108 -46t-46 -108
t46 -108t108 -46t108 46t46 108t-46 108t-108 46zM512 198q-43 0 -72.5 29.5t-29.5 72.5t29.5 72.5t72.5 29.5t72.5 -29.5t29.5 -72.5t-29.5 -72.5t-72.5 -29.5z" />
    <glyph glyph-name="cuowu" unicode="&#xe61d;" 
d="M511.5 746q-90.5 0 -173.5 -35.5t-142.5 -95t-95 -142.5t-35.5 -174t35.5 -173.5t95 -142.5t142.5 -95t173.5 -35t173.5 35t142.5 95t95 142.5t35.5 173.5t-35.5 174t-95 142.5t-142.5 95t-173.5 35.5zM700 146l-34 -34l-154 154l-154 -154l-34 34l154 154l-154 154
l34 34l154 -154l154 154l34 -34l-154 -154zM512 -148q-91 0 -174 35q-81 34 -142.5 96t-95.5 142q-35 83 -35 174t35 174q34 81 95.5 142.5t142.5 95.5q83 35 174 35t174 -35q80 -34 142 -95.5t96 -142.5q35 -83 35 -174t-35 -174q-34 -80 -96 -142t-142 -96
q-83 -35 -174 -35zM511.5 745q-90.5 0 -173 -35t-142.5 -95t-95 -142.5t-35 -173t35 -173t95 -142.5t142.5 -95.5t173 -35.5t173 35.5t142.5 95.5t95.5 142.5t35.5 173t-35.5 173t-95.5 142.5t-142.5 95t-173 35zM666 111l-154 154l-154 -154l-35 35l154 154l-154 154l35 35
l154 -154l154 154l35 -35l-154 -154l154 -154zM325 146l33 -33l154 154l154 -154l33 33l-154 154l154 154l-33 33l-154 -154l-154 154l-33 -33l154 -154z" />
    <glyph glyph-name="wode" unicode="&#xe63d;" 
d="M512 -138q-88 0 -168 33t-142 95q-84 84 -113.5 197t0.5 226t114 197q61 62 141 95t168 33t168 -33t142 -95q84 -84 113.5 -197t0 -226t-113.5 -197q-62 -62 -142 -95t-168 -33v0zM512 699q-80 0 -153 -30t-129 -87q-77 -76 -104 -179t0 -206t104 -179q56 -57 129 -87
t153 -30t153 30t129 87q77 76 104 179t0 206t-104 179q-56 57 -129 87t-153 30v0zM512 -138v0q-88 0 -168 33t-142 95q-16 17 -30 34q-8 10 -2 22q14 23 34 34q96 46 203 61l-4 25q-28 22 -31 49q0 2 -1 12.5t-2 15.5q-24 6 -27 29l-8 76q-2 23 19 34l-3 30q-8 79 34 116
q46 45 128 45t129 -46q41 -36 33 -115l-3 -31q21 -10 19 -33l-8 -76q-1 -11 -8.5 -19t-18.5 -10l-3 -29q-3 -25 -31 -48l-4 -25q107 -15 202 -61q21 -11 35 -34q6 -12 -2 -22q-14 -17 -30 -34q-62 -62 -142 -95t-168 -33v0zM212 37q8 -10 18 -19q56 -57 129 -87t153 -30
t153 30t129 87q10 10 18 19q-5 6 -10 8q-98 47 -209 60q-8 1 -13 7.5t-4 14.5l8 53q1 9 8 14q20 12 21 24l6 50q1 12 13 16q6 2 12 0l6 60q-7 -1 -13 4q-8 5 -7 18l6 50q5 59 -21 83q-37 35 -103 35t-102 -35q-27 -24 -22 -83l6 -50q1 -12 -9 -18q-5 -4 -11 -4l6 -60
q6 4 14 1q10 -3 11 -17q3 -20 6 -49q1 -13 21 -25q7 -5 8 -14l8 -53q1 -8 -4 -14.5t-13 -7.5q-111 -13 -210 -60q-4 -2 -9 -8v0zM212 37z" />
    <glyph glyph-name="tuikuanshouli" unicode="&#xe6b5;" 
d="M951 385q-7 5 -15.5 4t-14.5 -8l-31 -54v0q5 3 5.5 8t-1.5 31q-3 25 -4 43q-22 107 -97.5 184.5t-180 107.5t-212.5 7q-108 -22 -191 -96.5t-120.5 -180t-15.5 -213.5q17 -83 57.5 -149.5t101 -112t146 -63.5t185.5 -2q54 9 103 42.5t99 84.5l1 1q1 0 1.5 1t0.5 2
q3 4 3 9q0 9 -17 24q-16 13 -27 0v0q-32 -32 -51 -49t-52 -36.5t-66 -26.5q-98 -20 -189.5 8t-156 98.5t-84.5 168.5q-21 99 7 191.5t98 158t167 86.5q98 20 192 -8.5t161.5 -99t87.5 -168.5q5 -22 7 -45l-44 35q-7 6 -16 5t-14.5 -8t-4.5 -15.5t8 -14.5v0l81 -93v0
q7 -6 16 -5t15 8v0l65 109v1q6 6 5 15t-8 15v0zM454 109q0 -26 28 -27q25 -1 25 26v0v55h111v0q27 0 27 28q0 10 -2 16.5t-8.5 8.5t-7.5 2h-9h-109v27h109v0v0q27 0 27 28q0 14 -8.5 20.5t-18.5 6.5h-109v27l109 82v0l4.5 3.5t6.5 5.5t4.5 6.5t1.5 9.5t-4.5 12.5t-11.5 15.5
q-6 6 -13.5 6.5t-12.5 -4.5l-111 -83l-109 82q-6 5 -14 -3t-14 -24q-7 -21 0 -27v0l109 -82v-27h-81h-28q-7 0 -12.5 -1.5t-8.5 -3t-4.5 -5.5t-1.5 -5.5v-6.5v-5q0 -28 27 -28v0h109v-27h-109q-27 0 -27 -27t41 -28v0l95 1v-55v0v0z" />
    <glyph glyph-name="yue1" unicode="&#xe662;" 
d="M512 896q-104 0 -199 -40.5t-163.5 -109t-109 -163.5t-40.5 -199t40.5 -199t109 -163.5t163.5 -109t199 -40.5t199 40.5t163.5 109t109 163.5t40.5 199t-40.5 199t-109 163.5t-163.5 109t-199 40.5v0v0zM723 266q0 -12 -9.5 -21t-26.5 -9h-125v-102q0 -17 -13.5 -31.5
t-30.5 -14.5t-30.5 14.5t-13.5 31.5v102h-125q-19 0 -27.5 9.5t-8.5 34.5q0 30 29 30h132v73h-132q-15 0 -22 9t-7 20q0 44 29 44h103l-115 136q-12 13 -10.5 30.5t14.5 28.5v0q13 11 30 9.5t28 -14.5l126 -146l126 146q11 13 28 14.5t30 -9.5v0q13 -11 14.5 -28.5
t-9.5 -30.5l-116 -136h103q15 0 22 -9t7 -20q0 -44 -29 -44h-132v-73h132v0q0 -1 1 -0.5t2.5 0t4 -1t5 -2t4.5 -3.5t4.5 -5.5t4 -7.5t2.5 -10.5t1 -13.5z" />
    <glyph glyph-name="liren1" unicode="&#xe62c;" 
d="M806 635q-25 23 -56.5 27.5t-61 -7t-54.5 -33.5q-82 76 -173 81t-198 -60q-27 -17 -42 -32l-8 -7l10 -6q3 -2 9.5 -6.5t17.5 -20t12 -33.5q1 -25 -26 -55t-52 -47.5t-27 -17.5l58 -26q-6 -26 -8.5 -43.5t1 -48.5t18.5 -57q16 -21 40 -22q15 -1 38 -1h15h15q39 0 64 -3.5
t36.5 -11.5t15 -12.5t7.5 -14.5q23 -64 30 -107l1 -7h164h35q-4 9 -17 31.5t-24 43.5t-20 46t-7 48.5t16 40.5q57 73 66 163q5 47 -6 87q-9 34 -33 66q67 47 102 17q17 -14 18 -41.5t-9.5 -59t-27 -69t-33 -70t-30.5 -64t-18 -48.5q-10 -47 0 -75t30.5 -43.5t50 -16t57.5 8
t52.5 28.5t36.5 46q-6 -8 -26 -12.5t-43.5 -2.5t-44.5 13.5t-28.5 34.5t5.5 61q10 29 35 88t32 83q19 69 15 105.5t-30 61.5v0v0zM806 635z" />
    <glyph glyph-name="wodedingdan" unicode="&#xe615;" 
d="M962 73v144q-86 -21 -150 -83t-88 -148h151q36 0 61.5 25.5t25.5 61.5zM962 306v422q0 36 -25.5 61.5t-61.5 25.5h-695q-36 0 -61.5 -25.5t-25.5 -61.5v-655q0 -36 25.5 -61.5t61.5 -25.5h455q26 122 115.5 209t211.5 111zM281 651h493q18 0 31 -12.5t13 -30.5t-13 -30.5
t-31 -12.5h-493q-18 0 -31 12.5t-13 30.5t13 30.5t31 12.5zM281 444h493q18 0 31 -12.5t13 -30.5t-13 -31t-31 -13h-493q-18 0 -31 13t-13 31t13 30.5t31 12.5zM535 150h-254q-18 0 -31 12.5t-13 30.5t13 31t31 13h254q18 0 30.5 -13t12.5 -31t-12.5 -30.5t-30.5 -12.5z" />
    <glyph glyph-name="jiudian1" unicode="&#xe678;" 
d="M63 -65h495v898h-495v-898zM467 70h-134v270h134v-270zM332 698h135v-134h-135v134zM332 519h135v-135h-135v135zM289 384h-135v135h135v-135zM153 698h135v-134h-135v134zM153 340h135v-270h-135v270zM961 564h-359v-89h359v89zM602 429v-493h90v269l180 -1v-268h90v493
h-360z" />
    <glyph glyph-name="dianhua1" unicode="&#xe61b;" 
d="M716 -62q-68 0 -179 69q-105 65 -206 163v0l-21 21q-98 100 -163 206q-68 111 -68 179q0 66 61 147q11 16 24.5 31t38.5 33t44 18q25 0 61 -37q27 -28 57 -71q28 -41 48 -78q23 -43 23 -64q0 -27 -29 -47q-12 -9 -42 -21q-25 -11 -31 -16q5 -21 36 -66q36 -53 79 -97
q43 -42 96 -79q45 -30 66 -35q5 6 16 31q13 30 21 42q20 28 47 28q22 0 65 -22q37 -20 78 -48q43 -31 70 -57q37 -36 37 -61q0 -20 -17.5 -44.5t-33 -38t-30.5 -24.5q-82 -62 -148 -62zM367 206q96 -94 197 -155q99 -61 152 -61q48 0 115 49q28 21 46 42q14 16 17 25
q-4 9 -27 30.5t-63 49.5q-37 25 -69 42q-28 14 -39 16q-3 -2 -8 -10t-14 -29q-11 -26 -18 -37q-17 -26 -42 -26h-1q-31 1 -96 45q-58 39 -104 85h-1q-46 47 -85 104q-44 65 -44 97q-1 25 25 42q11 7 37 19q21 9 29 13.5t10 8.5q-1 11 -16 39q-17 32 -42 68
q-28 41 -49.5 63.5t-30.5 27.5q-9 -3 -25 -17q-21 -18 -42 -47q-49 -66 -49 -114q0 -54 61 -152q62 -101 156 -197z" />
    <glyph glyph-name="meishi" unicode="&#xe65b;" 
d="M960 107h-896q-27 0 -45.5 -16t-18.5 -41t18.5 -43t45.5 -18h896q27 0 45.5 18t18.5 43t-18.5 41t-45.5 16zM64 164h896q26 0 45 21t19 47q0 25 -19 43t-45 18h-5q-19 124 -105.5 218t-211.5 129q2 12 2 17q0 51 -37.5 86.5t-90.5 35.5t-90.5 -35.5t-37.5 -86.5
q0 -5 2 -17q-125 -35 -211.5 -129t-105.5 -218h-5q-27 0 -45.5 -18t-18.5 -43q0 -26 19 -47t45 -21zM512 718v0q27 0 45.5 -15t18.5 -40q0 -1 -0.5 -0.5t-0.5 -0.5q-8 1 -63 1t-63 -1q0 1 -0.5 0.5t-0.5 0.5q0 25 18.5 40t45.5 15zM242 393v0q66 100 183 131q2 1 5 2v0v0h6
q14 0 23.5 -9t9.5 -22q0 -11 -7.5 -19.5t-19.5 -10.5v0q-92 -25 -144 -102q-9 -18 -30 -18q-13 0 -22.5 9t-9.5 21q0 10 6 18z" />
    <glyph glyph-name="fujinmendian" unicode="&#xe635;" 
d="M497 18q-70 91 -106 140t-86 129.5t-82 153.5q-39 102 0 200.5t129 149.5q57 32 121 37.5t120 -15t101.5 -58.5t72.5 -96t27 -124q0 -55 -42 -140q-68 -140 -222 -337q-2 -2 -33 -40zM497 73l12 13q152 219 172 250q59 90 73 167q11 59 -10 117t-63 98.5t-101.5 61.5
t-120.5 11q-77 -12 -136.5 -67t-77 -131.5t20.5 -163.5q60 -121 150 -248q4 -6 81 -108zM391 108q-91 -23 -101 -26q-6 -2 -11 -6.5t-11.5 -11.5t-10.5 -10q4 -3 10.5 -9.5t12 -11t11.5 -6.5q63 -18 109 -23q142 -16 270 12q26 5 47 16q7 4 13.5 11t6.5 12q0 7 -7 14t-15 10
q-13 4 -92 23q0 1 -10 2q4 20 12.5 26t24.5 1q66 -20 93 -34q33 -17 33 -41t-32 -43q-49 -31 -137 -42q-170 -23 -305 19q-32 11 -64 34q-18 13 -18 30t17 31q45 38 123 47q4 1 9 -2.5t11.5 -11t10.5 -10.5zM664 532q-1 -67 -49.5 -115t-115.5 -48q-70 0 -119 49.5
t-48 117.5t50 116.5t117 48.5q69 -1 117.5 -50.5t47.5 -118.5zM498 406q54 0 92 37.5t39 90.5q0 54 -39 92t-93 38q-54 -1 -91.5 -38.5t-37.5 -91.5q0 -53 38.5 -91t91.5 -37z" />
    <glyph glyph-name="daipingjia" unicode="&#xe616;" 
d="M967 340v261q0 40 -27.5 68t-66.5 28h-697q-39 0 -66.5 -28t-27.5 -68v-483q0 -40 27.5 -68.5t66.5 -28.5h251l98 -102l97 102h251q39 0 66.5 28.5t27.5 68.5v109h-1v113h1zM905 401h-2l2 -33v0v-2v-169v-3v-3v-73q0 -15 -9.5 -25t-22.5 -10h-277l-71 -75l-72 75h-277
q-13 0 -22.5 10t-9.5 25v483q0 14 9.5 24.5t22.5 10.5v0h697q13 0 22.5 -10.5t9.5 -24.5v-200v0zM807 253h-397q-8 0 -13.5 -6t-5.5 -14.5t5.5 -14.5t13.5 -6h397q7 0 13 6t6 14.5t-6 14.5t-13 6zM807 385h-295q-8 0 -13.5 -6t-5.5 -15t5.5 -15t13.5 -6h295q7 0 13 6t6 15
t-6 15t-13 6zM807 516h-193q-8 0 -13.5 -6t-5.5 -14.5t5.5 -15t13.5 -6.5h193q7 0 13 6.5t6 15t-6 14.5t-13 6z" />
    <glyph glyph-name="sousuokuangsousuo" unicode="&#xe62e;" 
d="M962 -14l-229 235q34 42 55 92q30 70 30 146.5t-30 146.5q-29 68 -81 120t-119 81q-70 29 -147 29t-147 -29q-67 -29 -119 -81t-81 -120q-30 -70 -30 -146.5t30 -146.5q29 -67 81 -119.5t119 -80.5q70 -30 147 -30t147 30q47 20 87 52l229 -235zM752 460
q0 -129 -91 -220.5t-220 -91.5t-220 91.5t-91 220.5t91 220t220 91t220 -91t91 -220z" />
    <glyph glyph-name="shouye" unicode="&#xe613;" 
d="M936 465l-409 355q-8 7 -18 7t-18 -7l-404 -358q-14 -13 -7 -30.5t25 -17.5h57v-282q-4 -44 20 -72q23 -27 65 -27h511h4q39 0 65 24q29 27 29 74v284l63 2q19 0 25.5 17.5t-8.5 30.5zM441 276v0q1 3 3 6q16 16 66 16q44 0 61 -14q7 -5 7 -10v-186h-137v188z" />
    <glyph glyph-name="dingwei" unicode="&#xe618;" 
d="M517.5 708q107.5 0 183.5 -66.5t76 -160.5q0 -52 -76 -172.5t-183 -248.5q-108 128 -184 248.5t-76 172.5q0 94 76 160.5t183.5 66.5zM518 794q-94 0 -174 -42t-126 -114t-46 -157q0 -48 35.5 -122.5t86.5 -146.5t101.5 -137.5t86.5 -105.5l36 -40q14 16 37 42.5t83 101
t105.5 141t83 143t37.5 124.5q0 85 -46.5 157t-126 114t-173.5 42v0zM518 605q-37 0 -63 -26t-26 -62.5t26 -62.5t62.5 -26t62.5 26t26 62.5t-26 62.5t-62 26v0z" />
    <glyph glyph-name="dianying1" unicode="&#xe70e;" 
d="M461 377.5q0 -20.5 14.5 -34.5t34.5 -14t34.5 14t14.5 34.5t-14.5 35t-34.5 14.5t-34.5 -14.5t-14.5 -35zM270 197q0 -44 31 -75t75.5 -31t75.5 31t31 75t-31 75.5t-75.5 31.5t-75.5 -31.5t-31 -75.5zM539 197v0q0 -44 31 -75t75.5 -31t75.5 31t31 75v0q0 44 -31 75.5
t-75.5 31.5t-75.5 -31.5t-31 -75.5zM186 452v0q0 -44 31 -75.5t75.5 -31.5t75.5 31.5t31 75.5v0q0 44 -31 75t-75.5 31t-75.5 -31t-31 -75zM625 452v0q0 -44 31 -75.5t75.5 -31.5t75.5 31.5t31 75.5v0q0 44 -31 75t-75.5 31t-75.5 -31t-31 -75zM405 612q0 -44 31.5 -75.5
t75.5 -31.5t75.5 31.5t31.5 75.5t-31.5 75t-75.5 31t-75.5 -31t-31.5 -75zM922 -26h-137q101 67 160 175.5t59 234.5q0 101 -38.5 192t-104.5 157t-157 104.5t-192 38.5t-192 -38.5t-157 -104.5t-104.5 -157t-38.5 -192t38.5 -192t104.5 -157t157 -104.5t192 -38.5h410
q17 0 29 12t12 28.5t-12 29t-29 12.5v0zM512 -26q-111 0 -205.5 55t-149.5 149.5t-55 205.5t55 205.5t149.5 149.5t205.5 55t205.5 -55t149.5 -149.5t55 -205.5t-55 -205.5t-149.5 -149.5t-205.5 -55z" />
    <glyph glyph-name="yinxingqia2" unicode="&#xe639;" 
d="M199 270h418q9 0 14.5 6t5.5 14.5t-5.5 14t-14.5 5.5h-418q-8 0 -14 -5.5t-6 -14t6 -14.5t14 -6zM907 759h-785q-43 0 -74 -28t-31 -68v-504q0 -40 30.5 -68t74.5 -28h783q43 0 74 28t31 68v504q2 40 -28.5 68t-74.5 28zM60 663q0 23 18.5 40t43.5 17h783q27 0 46 -17
t19 -40v-123h-910v123zM973 159h-3q0 -23 -18.5 -40t-44.5 -17h-785q-25 0 -43.5 17t-18.5 40v344h913v-344z" />
    <glyph glyph-name="user" unicode="&#xe60f;" 
d="M511 896q-104 0 -198.5 -40.5t-163 -109t-109 -163t-40.5 -198.5q0 -92 32 -178.5t93 -156.5q73 -84 174 -130t212 -46q104 0 198.5 40.5t163 109t109 163t40.5 198.5t-40.5 198.5t-109 163t-163 109t-198.5 40.5zM511 -78q-167 0 -297 109q17 110 101.5 183t196.5 73
t196 -71t102 -181l0.5 -0.5t0.5 -1.5q-130 -111 -300 -111zM511 336q-67 0 -114.5 47.5t-47.5 115t47.5 115t114.5 47.5t115 -47.5t48 -115t-48 -115t-115 -47.5zM852 73q-23 88 -84.5 153t-146.5 93q46 28 73.5 76t27.5 104q0 87 -61.5 149t-149 62t-149.5 -62t-62 -149
q0 -57 27.5 -105t74.5 -76q-85 -28 -146.5 -94t-82.5 -153q-2 1 -6 5l-6 6q-54 63 -83 141t-29 162q0 94 36.5 179.5t98.5 147.5t147.5 98.5t179.5 36.5t179.5 -36.5t147.5 -98.5t99 -147.5t37 -179.5q0 -89 -32 -169t-90 -143z" />
    <glyph glyph-name="xing-copy" unicode="&#xe604;" 
d="M648 536l309 -47l-223 -229l52 -324l-276 153l-276 -153l52 324l-223 229l309 47l138 294z" />
    <glyph glyph-name="quan2" unicode="&#xe656;" horiz-adv-x="1025" 
d="M325 320h379q-90 50 -146 130h-77q-52 -73 -156 -130zM979 896h-934q-18 0 -31.5 -13.5t-13.5 -31.5v-934q0 -19 13.5 -32t31.5 -13h934q19 0 32 13t13 32v934q0 18 -13.5 31.5t-31.5 13.5zM889 449h-235q73 -93 235 -149v-53q-75 24 -146 49v-172q3 -110 -109 -106h-93
v56h63q53 0 53 47v143h-209q10 -107 -63 -172t-229 -90v49q219 54 206 206v7h-93v30q-19 -7 -136 -50v56q178 66 245 149h-245v57h282q20 36 30 82h-279v54h103q-23 44 -33 102h82q11 -66 30 -102h106q0 12 4 33v33v60h92v-53q0 -34 -3 -73h116q24 52 30 102h83
q-13 -51 -33 -102h113v-54h-315q-10 -46 -27 -82h375v-57z" />
    <glyph glyph-name="huiyuanqiaguanli" unicode="&#xe610;" 
d="M780 340v12q0 18 -13 31t-31 13h-56v-100h56q18 0 31 13t13 31zM903 743h-782q-23 0 -39.5 -16.5t-16.5 -39.5v-78h894v78q0 23 -16.5 39.5t-39.5 16.5zM266 430l50 -201l51 201h33l-67 -268h-33l-68 268h34zM501 430h33v-268h-33v268v0zM646 430h92q32 0 54 -22t22 -54
v-11q0 -33 -24 -57t-57 -24h-53v-100h-34v268zM65 83q0 -23 16.5 -39t39.5 -16h782q23 0 39.5 16t16.5 39v481h-894v-481v0z" />
    <glyph glyph-name="tuikuan1" unicode="&#xe6a7;" horiz-adv-x="1109" 
d="M710 322v-57h-170v-142h-57v142h-170v57h170v57h-172v57h149l-147 142h85l112 -111l115 111h85l-150 -142h149v-57h-169v-57h170zM1100 414l-100 -100q-11 -11 -27 -7q-15 -4 -26 7l-100 100q-8 9 -8 20.5t8 20t20 8.5t20 -8l72 -73v2q0 93 -35.5 177t-96 145t-144 97
t-175.5 36t-175.5 -36t-144 -97t-96.5 -145t-36 -176.5t36 -177t96.5 -145.5t144 -97t175.5 -36q93 0 176 36t145 100q8 9 21.5 2t15.5 -20q1 -5 -1 -11.5t-5 -12t-6 -10t-5.5 -7.5l-2.5 -3q-68 -62 -155 -96.5t-183 -34.5q-103 0 -197.5 40.5t-162.5 109.5t-108 163.5
t-40 198.5t40 199t108 163.5t162.5 109t197.5 40.5q100 0 191.5 -38t159 -103.5t109.5 -155.5t47 -190l45 46q8 8 19.5 8t20 -8.5t8.5 -20t-8 -20.5z" />
    <glyph glyph-name="quan3" unicode="&#xe622;" 
d="M833 115h-642q-37 0 -56.5 19.5t-19.5 56.5v116q0 13 13 13q27 0 45.5 18.5t18.5 45.5t-18.5 45.5t-45.5 18.5q-13 0 -13 13v116q0 37 19.5 56.5t56.5 19.5h642q37 0 56.5 -19.5t19.5 -56.5v-116q0 -13 -13 -13q-27 0 -45.5 -18.5t-18.5 -45.5t18.5 -45.5t45.5 -18.5
q13 0 13 -13v-116q0 -37 -19.5 -56.5t-56.5 -19.5zM141 296v-105q0 -26 12 -38t38 -12h642q26 0 38 12t12 38v105q-33 5 -55 30t-22 58t22 58t55 30v105q0 26 -12 38t-38 12h-642q-26 0 -38 -12t-12 -38v-105q33 -5 55 -30t22 -58t-22 -58t-55 -30zM358.5 538
q-12.5 0 -12.5 12v90q0 13 12.5 13t12.5 -13v-90q0 -12 -12.5 -12zM358.5 397q-12.5 0 -12.5 13v89q0 13 12.5 13t12.5 -13v-89q0 -13 -12.5 -13zM358.5 256q-12.5 0 -12.5 13v89q0 13 12.5 13t12.5 -13v-89q0 -13 -12.5 -13zM358.5 115q-12.5 0 -12.5 13v90q0 12 12.5 12
t12.5 -12v-90q0 -13 -12.5 -13z" />
    <glyph glyph-name="qrcode" unicode="&#xe602;" 
d="M925 350h-826q-14 0 -24 10t-10 24t10 24t24 10h826q14 0 24 -10t10 -24t-10 -24t-24 -10v0v0zM856 -64h-206q-15 0 -25 10t-10 24.5t10 24.5t25 10h206q15 0 25 10t10 25v172q0 14 10 24t24.5 10t24.5 -10t10 -24v-172q0 -43 -30.5 -73.5t-73.5 -30.5v0v0v0zM340 -64
h-172q-43 0 -73.5 30.5t-30.5 73.5v172q0 14 10 24t24.5 10t24.5 -10t10 -24v-172q0 -15 10 -25t25 -10h172q14 0 24 -10t10 -24.5t-10 -24.5t-24 -10v0v0zM99 522q-15 0 -25 10t-10 24v172q0 43 30.5 73.5t73.5 30.5h172q14 0 24 -10t10 -24.5t-10 -24.5t-24 -10h-172
q-15 0 -25 -10t-10 -25v-172q0 -14 -10 -24t-24 -10v0v0zM925 522q-14 0 -24 10t-10 24v172q0 15 -10 25t-25 10h-206q-15 0 -25 10t-10 24.5t10 24.5t25 10h206q43 0 73.5 -30.5t30.5 -73.5v-172q0 -14 -10 -24t-25 -10v0v0zM925 522z" />
    <glyph glyph-name="dianying2" unicode="&#xe612;" 
d="M725.5 457q-37.5 0 -64 -26.5t-26.5 -64t26.5 -64t64 -26.5t64 26.5t26.5 64t-26.5 64t-64 26.5zM508.5 240q-37.5 0 -64 -26.5t-26.5 -64t26.5 -64t64 -26.5t64 26.5t26.5 64t-26.5 64t-64 26.5zM472 366q0 -15 10.5 -25.5t25.5 -10.5t26 10.5t11 25.5t-11 25.5
t-26 10.5t-25.5 -10.5t-10.5 -25.5zM508.5 674q-37.5 0 -64 -26.5t-26.5 -64t26.5 -64t64 -26.5t64 26.5t26.5 64t-26.5 64t-64 26.5zM290.5 457q-37.5 0 -64 -26.5t-26.5 -64t26.5 -64t64 -26.5t64 26.5t26.5 64t-26.5 64t-64 26.5zM743 22h95q13 0 22.5 -10.5t9.5 -25.5
t-9.5 -25.5t-22.5 -10.5h-317h-4h-4h-5q-113 0 -209 55.5t-151.5 151.5t-55.5 209t55.5 209t151.5 152t209.5 56t209 -56t151.5 -152t56 -209q0 -105 -49 -196t-133 -148z" />
    <glyph glyph-name="meishi1" unicode="&#xe614;" 
d="M842 771q-14 12 -34.5 12t-35 -12t-14.5 -29v-745q0 -17 14.5 -29t35 -12t34.5 12t14 29v745q0 17 -14 29zM631.5 783q-20.5 0 -35 -12t-14.5 -29v-745q0 -17 14.5 -29t34.5 -12q21 0 35 12t14 29v745q0 17 -14 29t-34.5 12zM308.5 764q-40.5 0 -78 -41t-58 -95
t-20.5 -99q0 -54 33 -96t84 -55v-382q0 -17 11.5 -28.5t27.5 -11.5t27.5 11.5t11.5 28.5v382q52 13 85 54.5t33 96.5q0 45 -20.5 99t-58 95t-78 41z" />
    <glyph glyph-name="ktv" unicode="&#xe619;" 
d="M477 292q56 -31 105 -37l-191 -275q-15 -21 -42.5 -22.5t-45.5 11.5l-31 18q-21 12 -32.5 35.5t-1.5 46.5l140 307q28 -45 99 -84zM760 361q-53 -62 -116 -66l-3 1q-21 -5 -61 7t-84 38q-46 28 -76 56.5t-35 51.5l-3 1q-26 57 -3 131q62 -82 168 -144q109 -64 213 -76z
M805 427q-3 -7 -12 -20q-98 3 -220 74q-120 70 -172 153q8 17 12 24q34 61 87 92t110.5 28.5t112.5 -35.5q83 -49 107.5 -135.5t-25.5 -180.5z" />
    <glyph glyph-name="fujin" unicode="&#xe65c;" horiz-adv-x="1356" 
d="M677 -38q-159 0 -245 33t-86 92q0 33 45 61.5t118 45.5l23 -39q-62 -11 -97.5 -29t-35.5 -39q0 -32 82.5 -52t195 -20t195.5 20t83 52q0 21 -36 39t-97 29l22 39q74 -17 119 -45.5t45 -61.5q0 -58 -88.5 -91.5t-242.5 -33.5v0zM897 345l-191 -221v0q-13 -16 -25 -16
q-10 0 -23 16q-206 225 -209 230q-11 15 -12 18q-46 72 -46 148q0 118 84 201.5t202 83.5t201.5 -83.5t83.5 -201.5q0 -84 -45 -154q-6 -7 -20 -21v0zM677 752q-97 0 -165.5 -68t-68.5 -165q0 -61 35 -112q3 -5 10.5 -14.5t12.5 -15.5l6 -7l176 -196l161 190q8 11 18 25
q49 70 49 130q0 97 -68.5 165t-165.5 68v0zM677 410q-46 0 -78 32.5t-32 78t32 77.5t77.5 32t78 -32t32.5 -77.5t-32.5 -78t-77.5 -32.5v0zM677 577q-24 0 -40.5 -16.5t-16.5 -40t16.5 -40.5t40 -17t40.5 17t17 40.5t-17 40t-40 16.5v0zM677 577z" />
    <glyph glyph-name="xiuxianyule" unicode="&#xe62a;" 
d="M739 552l-256 -236v-218q79 -3 131 -18t52 -35q0 -10 -13 -16t-45 -8.5t-57.5 -3t-78.5 -0.5h-21h-21q-54 0 -79.5 0.5t-57.5 3t-45 8.5t-13 16q0 20 52 35t130 18v217l-255 237q-10 9 -10 21.5t10 21.5h577q9 -9 9 -21.5t-9 -21.5zM723 363h-18q-15 2 -24 13t-7.5 25
t12.5 23.5t25 7.5h12q50 0 85.5 35.5t35.5 85.5t-35.5 86t-85.5 36q-47 0 -82 -31q-10 -10 -24.5 -9.5t-24 11.5t-9 25t11.5 24q54 49 128 49q79 0 135 -56t56 -135t-56 -134.5t-135 -55.5z" />
    <glyph glyph-name="huochepiao" unicode="&#xe62f;" horiz-adv-x="1025" 
d="M356 37h302q7 0 12 -5t5 -12v-17q0 -7 -5 -12t-12 -5h-302q-7 0 -12 5t-5 12v17q0 7 5 12t12 5v0zM692 362q-21 0 -36 -15t-15 -36.5t15 -36.5t35.5 -15t35.5 15t15 36.5t-15 36.5t-35 15v0zM742 584q0 14 -10 24t-24 10h-403q-13 0 -23 -10t-10 -24v-137q0 -14 10 -24
t23 -10h403q14 0 24 10t10 24v137zM322 259q21 0 36 15t15 36.5t-15 36.5t-36 15t-35.5 -15t-14.5 -36.5t14.5 -36.5t35.5 -15v0zM827 -44q-12 -6 -24.5 -2.5t-19.5 14.5l-69 122q-9 -2 -17 -2h-380q-8 0 -18 2l-69 -122q-7 -11 -19.5 -14.5t-24 3t-15 19.5t3.5 24l64 113
q-26 20 -39.5 49t-11.5 63l24 368q4 48 33 79.5t77 31.5h101q0 35 24.5 60t59.5 25t59.5 -25t24.5 -60h117q86 0 93 -111l25 -368q2 -34 -12 -63.5t-40 -48.5l64 -113q7 -11 3.5 -24t-14.5 -20v0v0z" />
    <glyph glyph-name="close" unicode="&#xe61a;" 
d="M510.5 868q-98.5 0 -188 -38.5t-154.5 -103t-103 -154.5t-38 -188t38 -188t103 -154.5t154.5 -103t188 -38.5t188.5 38.5t154.5 103t103 154.5t38.5 188t-38.5 188t-103 154.5t-154.5 103t-188.5 38.5zM746 209q12 -12 12 -29.5t-12.5 -30t-30 -12.5t-29.5 12l-173 172
l-172 -172q-12 -12 -29.5 -12t-30 12.5t-12.5 30t12 29.5l172 172l-172 172q-12 13 -12 30.5t12.5 30t30 12.5t29.5 -13l172 -172l173 172q12 13 29.5 13t30 -12.5t12.5 -30t-12 -30.5l-173 -172z" />
    <glyph glyph-name="icon1" unicode="&#xe679;" 
d="M275 880h-180q-39 0 -66.5 -28t-27.5 -67v-180q0 -39 27.5 -67t66.5 -28h180q40 0 67.5 28t27.5 67v180q0 39 -27.5 67t-67.5 28zM269 635q0 -10 -7 -17t-16 -7h-121q-10 0 -17 7t-7 17v120q0 10 7 17t17 7h121q9 0 16 -7t7 -17v-120zM913 880h-180q-39 0 -66.5 -28
t-27.5 -67v-180q0 -39 27.5 -67t66.5 -28h180q40 0 67.5 28t27.5 67v180q0 39 -27.5 67t-67.5 28zM907 635q0 -10 -7 -17t-16 -7h-121q-10 0 -17 7t-7 17v120q0 10 7 17t17 7h121q9 0 16 -7t7 -17v-120zM275 241h-180q-39 0 -66.5 -27.5t-27.5 -66.5v-180q0 -39 27.5 -67
t66.5 -28h180q40 0 67.5 28t27.5 67v180q0 39 -27.5 66.5t-67.5 27.5zM269 -4q0 -9 -7 -16t-16 -7h-121q-10 0 -17 7t-7 16v121q0 10 7 17t17 7h121q9 0 16 -7t7 -17v-121zM913 241h-180q-39 0 -66.5 -27.5t-27.5 -66.5v-180q0 -39 27.5 -67t66.5 -28h180q40 0 67.5 28
t27.5 67v180q0 39 -27.5 66.5t-67.5 27.5zM907 -4q0 -9 -7 -16t-16 -7h-121q-10 0 -17 7t-7 16v121q0 10 7 17t17 7h121q9 0 16 -7t7 -17v-121zM739 443h-167v369q0 28 -20 48t-47.5 20t-47.5 -20t-20 -48v-369h-369q-28 0 -47.5 -19.5t-19.5 -47.5t19.5 -47.5t47.5 -19.5
h671q28 0 48 19.5t20 47.5t-20 47.5t-48 19.5zM572 -61q0 -28 -20 -47.5t-48 -19.5v0q-27 0 -47 19.5t-20 47.5v235q0 28 20 47.5t47 19.5v0q28 0 48 -19.5t20 -47.5v-235zM1008 376q0 -28 -19.5 -47.5t-47.5 -19.5v0q-28 0 -47.5 19.5t-19.5 47.5v0q0 28 19.5 47.5
t47.5 19.5v0q28 0 47.5 -19.5t19.5 -47.5v0z" />
    <glyph glyph-name="mimaweixianshi" unicode="&#xe63e;" horiz-adv-x="1040" 
d="M953 597q-77 -105 -193.5 -164t-247.5 -59t-247 59t-194 164h-70l6 -9q84 -128 218 -200t287 -72t287 72t219 201l6 8h-71zM490 320v-149h54v149h-54zM700 358l63 -149l50 21l-64 149zM876 453l99 -127l43 33l-99 127zM281 380l-56 -156l50 -18l57 155zM114 482
l-100 -128l43 -33l99 127z" />
    <glyph glyph-name="wodeqianbao" unicode="&#xe6aa;" 
d="M68 39h819q25 0 43 18t18 44v138h-294q-33 0 -64 13q-29 12 -51.5 35t-35.5 52q-13 31 -13 64v17q0 34 13 64q13 29 35.5 51.5t51.5 35.5q31 13 64 13h294v138q0 26 -18 44t-43 18h-819q-26 0 -44 -18t-18 -44v-621q0 -26 18 -44t44 -18zM1016 476q0 19 -13.5 32.5
t-32.5 13.5h-22h-294q-42 0 -72 -30t-30 -72v-17q0 -42 30 -72t72 -30h294h22q19 0 32.5 13.5t13.5 32.5v129zM670.5 357q-22.5 0 -38.5 16t-16 38.5t16 38.5t38.5 16t38.5 -16t16 -38.5t-16 -38.5t-38.5 -16z" />
    <glyph glyph-name="daipingjia1" unicode="&#xe61c;" 
d="M191 766h641q52 0 88.5 -36.5t36.5 -88.5v-356q0 -52 -36.5 -88.5t-88.5 -36.5h-298l-153 -153q-5 -5 -12.5 -5t-12.5 5.5t-5 12.5t5 13l158 158q2 2 5.5 3.5t6.5 1.5h306q37 0 63.5 26t26.5 63v357q0 36 -26.5 62.5t-63.5 26.5h-641q-37 0 -63 -26.5t-26 -62.5v-357
q0 -37 26 -63t63 -26h86q7 0 12.5 -5.5t5.5 -12.5t-5.5 -12.5t-12.5 -5.5h-86q-52 0 -88.5 36.5t-36.5 88.5v357q0 51 36.5 87.5t88.5 36.5v0zM687 462zM731 462zM509 462zM553 462zM330 462zM375 462zM255 452zM213 451.5q0 17.5 12.5 29.5t29.5 12t29 -12t12 -29.5
t-12 -29.5t-29 -12t-29.5 12t-12.5 29.5zM512 452zM471 451.5q0 17.5 12 29.5t29 12t29 -12t12 -29.5t-12 -29.5t-29 -12t-29 12t-12 29.5zM765 452zM724 451.5q0 17.5 12 29.5t29 12t29.5 -12t12.5 -29.5t-12.5 -29.5t-29.5 -12t-29 12t-12 29.5z" />
    <glyph glyph-name="daishiyong" unicode="&#xe63a;" 
d="M16 19v217v20h10h30v-118h769h40h98v118h30h10v-79v-158h-987zM825 98h-769v-39h769v39zM963 98h-98v-39h98v39zM588 315h178v-39h-178v39zM588 473h178v-39h-178v39zM473 256l-92 61l-91 -61l35 98l-92 61h111l37 97l37 -97h111l-92 -61zM746 355h-158v39h158v-39z
M865 384q0 53 37.5 90.5t90.5 37.5h10v-40q-9 1 -10 1q-37 0 -63 -26t-26 -63t26 -63t63 -26q1 0 10 1v-40h-10q-53 0 -90.5 37.5t-37.5 90.5zM963 631h-98h-40h-769v-119h-30h-10v40v79v39v79h809h40h138v-217v-20h-10h-30v119zM825 710h-769v-40h769v40zM963 710h-98v-40
h98v40zM154 384q0 -53 -37.5 -90.5t-90.5 -37.5h-10v40q9 -1 10 -1q37 0 63 26t26 63t-26 63t-63 26q-1 0 -10 -1v40h10q53 0 90.5 -37.5t37.5 -90.5z" />
    <glyph glyph-name="tubiao" unicode="&#xe631;" 
d="M512 349q-69 0 -118.5 49t-49.5 118.5t49.5 118.5t118.5 49t118.5 -49t49.5 -118.5t-49.5 -118.5t-118.5 -49zM512 884q-99 0 -183.5 -49t-133.5 -133.5t-49 -183.5q0 -147 175 -389q85 -118 172 -209l19 -21l19 20q85 90 173 210q174 242 174 389q0 99 -49 183.5
t-133.5 133.5t-183.5 49zM512 -44q-26 28 -55.5 63t-81.5 103.5t-91 131t-69 136t-30 128.5q0 88 43.5 163.5t119 119.5t164.5 44t164.5 -44t119 -119.5t43.5 -163.5q0 -55 -30 -128.5t-69 -136t-91 -131t-81.5 -103.5t-55.5 -63z" />
    <glyph glyph-name="waimai" unicode="&#xe61e;" 
d="M145 228q0 -28 21 -48t50.5 -20t50.5 20t21 48t-21 48t-50.5 20t-50.5 -20t-21 -48v0zM747 160q30 0 51 20t21 48t-21 48t-50.5 20t-50.5 -20t-21 -48t21 -48t50 -20v0zM684 451h71q1 0 7 -1q1 0 3 0.5t3 0.5h119q29 0 62 -34.5t33 -62.5v-16q0 -8 -3.5 -13t-13.5 -7
t-17.5 -2h-24.5h-6q24 -41 24 -88q0 -76 -57 -130t-137 -54q-54 0 -99.5 26.5t-70.5 70.5h-190q-25 -44 -71 -70.5t-100 -26.5q-81 0 -137.5 54t-56.5 130q0 46 22 85.5t60 64.5q-2 8 -2 15l45 71q-29 14 -46 37.5t-17 46.5v24q0 31 22 52t53 21h155q28 29 61 47.5t51 7.5
q16 -8 20.5 -27t0.5 -37t-12 -36l-25 -60v-16q0 -25 -15 -44t-39 -25q-9 -37 -3 -66.5t27.5 -47t47.5 -24t56.5 4t55.5 37.5q5 7 8 15v0h1q10 23 28.5 39t40 23.5t36.5 10.5t30 4v0zM927 509h-278q-31 0 -53 20.5t-22 48.5v114q0 29 22 49t53 20h278q31 0 53 -20t22 -49
v-114q0 -28 -22 -48.5t-53 -20.5v0z" />
    <glyph glyph-name="meishi2" unicode="&#xe659;" 
d="M764 -6q0 -21 -12.5 -36.5t-32.5 -20.5q-7 -1 -13 -1q-25 0 -42 16.5t-17 41.5q0 9 9.5 395.5t10.5 402.5q0 16 11.5 27.5t27.5 11.5q12 0 22 -7.5t14 -18.5q2 -6 2 -13q2 -15 11 -400.5t9 -397.5zM959 -6q0 -21 -13 -36.5t-33 -20.5q-6 -1 -13 -1q-24 0 -41 16.5
t-17 41.5q0 9 9 395.5t10 402.5q0 16 11.5 27.5t27.5 11.5q13 0 23 -7.5t14 -18.5q2 -6 2 -13q1 -15 10.5 -400.5t9.5 -397.5zM453 551q0 65 -25.5 128.5t-71.5 107t-98 44.5q-54 1 -99.5 -42.5t-70.5 -108t-25 -129.5q0 -79 45 -125t113 -58q-7 -67 -17.5 -155
t-17.5 -142.5t-7 -55.5q0 -33 23 -56t56 -23q15 0 29 5q22 9 36 29t14 45q0 1 -7 55.5t-17 142.5t-17 155q70 12 113.5 57.5t43.5 125.5z" />
    <glyph glyph-name="xianshimima" unicode="&#xe636;" 
d="M512 547q-94 3 -160.5 -66t-68.5 -163q-3 -93 66 -159.5t163 -69.5q92 -2 158 65t71 160v4v5q-5 94 -70 157.5t-159 66.5zM512 144q-72 -3 -122.5 50t-52.5 124q-2 72 50.5 122.5t124 52.5t122 -50.5t53.5 -124.5q-3 -73 -52.5 -122.5t-122.5 -51.5zM965 414
q-58 113 -166 185q11 11 33 33.5t34 33.5q11 12 6 26.5t-18.5 18.5t-26.5 -6q-13 -13 -38.5 -39t-38.5 -38q-56 28 -118 43q20 68 34 115q5 16 -6 26t-26 7t-20 -19l-36 -119q-74 10 -148 0q-24 79 -36 119q-4 16 -19 19t-26.5 -7t-6.5 -26q6 -19 17.5 -58t17.5 -58
q-60 -16 -115 -46l-40 40l-41 41q-11 11 -26 6t-18.5 -18.5t6.5 -26.5q11 -10 23 -22.5t26.5 -27t23.5 -22.5q-99 -71 -156.5 -181.5t-59.5 -233.5v-2.5v-3.5q5 -119 193 -181q171 -56 410 -40q236 16 348 99q42 31 60 76.5t12.5 96.5t-20 97t-38.5 93zM956 133
q-26 -45 -113 -79q-161 -62 -405 -49q-152 8 -263 52q-119 45 -121 120q2 162 104.5 287t261.5 160q104 23 208.5 -5.5t185.5 -99.5t122 -170q61 -147 20 -216z" />
    <glyph glyph-name="diyongquan" unicode="&#xe676;" horiz-adv-x="1219" 
d="M389 120q-21 0 -35.5 -14.5t-14.5 -35t14.5 -35.5t35.5 -15t35.5 15t14.5 35.5t-14.5 35t-35.5 14.5v0zM389 333q-21 0 -35.5 -14.5t-14.5 -35.5t14.5 -35.5t35.5 -14.5t35.5 14.5t14.5 35.5t-14.5 35.5t-35.5 14.5v0zM389 558q-21 0 -35.5 -14.5t-14.5 -35.5t14.5 -35.5
t35.5 -14.5t35.5 14.5t14.5 35.5t-14.5 35.5t-35.5 14.5v0zM389 771q-21 0 -35.5 -14.5t-14.5 -35.5t14.5 -35.5t35.5 -14.5t35.5 14.5t14.5 35.5t-14.5 35.5t-35.5 14.5v0zM1205 95q0 -83 -59 -141.5t-142 -58.5h-803q-83 0 -142 58.5t-59 141.5v135q46 24 73 68.5t27 97.5
t-27.5 97t-72.5 69v134q0 83 59 141.5t142 58.5h803q83 0 142 -58.5t59 -141.5v-134q-46 -25 -73.5 -69t-27.5 -97t27.5 -97.5t73.5 -68.5v-135z" />
    <glyph glyph-name="sousuolansousuo" unicode="&#xe652;" 
d="M73 457.5q0 99.5 49 183.5t133.5 133t183.5 49t183.5 -49t133.5 -133t49 -183.5t-49 -183.5t-133.5 -133t-183.5 -49t-183.5 49t-133.5 133t-49 183.5zM1013 -65l-239 239q104 122 104 283q0 89 -35 170.5t-93.5 140t-140 93.5t-170.5 35t-170.5 -35t-140 -93.5
t-93.5 -140t-35 -170.5t35 -170t93.5 -140t140 -93.5t170.5 -34.5q161 0 283 103l240 -239q10 -11 25 -11t26 11t11 26t-11 26z" />
    <glyph glyph-name="tongzhi" unicode="&#xe709;" 
d="M904 94l-75 132v277q0 89 -59 171q-60 83 -153 118h-1q-6 2 -14 4v10q0 37 -26.5 63.5t-63.5 26.5t-63.5 -26.5t-26.5 -63.5v-9q-8 -2 -12 -4h-1q-94 -34 -156 -118q-60 -82 -60 -172v-277l-80 -141q-16 -27 0 -54.5t48 -27.5h198q9 -56 52.5 -93.5t100.5 -37.5
t100.5 37.5t52.5 93.5h198q23 0 39 16t16 39q0 21 -14 36zM512 849q17 0 29.5 -12t13.5 -29q-8 1 -14 2q-4 1 -7 0q-1 1 -2 1q-13 2 -20.5 2t-20.5 -2q-1 0 -2 -1q-4 1 -7 0q-6 -1 -13 -2q1 17 13.5 29t29.5 12zM512 -81q-38 0 -67 24t-38 60h210q-9 -36 -38 -60t-67 -24z
M863 50h-702q-5 0 -7 4t0 8l84 147q3 5 3 11v283q0 76 52.5 146.5t131.5 99.5q29 9 57 14q3 -1 5 0q4 0 11 1q9 1 13 1t14 -1q6 -1 10 -1q2 -1 5 0q29 -5 61 -16q78 -29 129.5 -99t51.5 -145v-283q0 -6 3 -11l80 -141q1 -3 4 -5q2 -2 2 -5q0 -8 -8 -8z" />
    <glyph glyph-name="ktv1" unicode="&#xe634;" 
d="M477 292q56 -31 105 -37l-191 -275q-15 -21 -42.5 -22.5t-45.5 11.5l-31 18q-21 12 -32.5 35.5t-1.5 46.5l140 307q28 -45 99 -84zM760 361q-53 -62 -116 -66l-3 1q-21 -5 -61 7t-84 38q-46 28 -76 56.5t-35 51.5l-3 1q-26 57 -3 131q62 -82 168 -144q109 -64 213 -76z
M805 427q-3 -7 -12 -20q-98 3 -220 74q-120 70 -172 153q8 17 12 24q34 61 87 92t110.5 28.5t112.5 -35.5q83 -49 107.5 -135.5t-25.5 -180.5z" />
    <glyph glyph-name="zhoubianyou" unicode="&#xe61f;" horiz-adv-x="1025" 
d="M512 896q-104 0 -198.5 -40.5t-163 -109t-109 -163.5t-40.5 -199t40.5 -198.5t109 -163t163 -109t198.5 -40.5t199 40.5t163.5 109t109 163t40.5 198.5t-40.5 199t-109 163.5t-163.5 109t-199 40.5zM369 628q31 0 53 -22t22 -53t-22 -53.5t-53 -22.5t-53.5 22.5
t-22.5 53.5t22.5 53t53.5 22zM791 212q-14 -24 -41 -24h-482q-13 0 -20 5t-13 17t-4 27.5t10 26.5l106 125q21 26 44.5 26.5t41.5 -20.5l41 -49q22 -19 39 -19q16 0 34 31l64 97q13 25 39 25q29 0 43 -24l97 -196q14 -24 1 -48z" />
    <glyph glyph-name="jinggao" unicode="&#xe6c7;" 
d="M513.5 201q-19.5 0 -33 -14t-13.5 -34.5t13.5 -34.5t33 -14t33 14t13.5 34.5t-13.5 34.5t-33 14zM513.5 591q-19.5 0 -33 -14.5t-13.5 -34.5l23 -268q0 -10 7 -17t16.5 -7t16.5 7t7 17l23 268q0 20 -13.5 34.5t-33 14.5zM1011 103l-417 682q0 2 -2 5.5t-9 12t-15.5 15
t-23 12t-30.5 5.5t-30 -5.5t-23 -12.5t-15.5 -14.5t-9.5 -12.5l-3 -5l-417 -682q-12 -16 -12 -48q0 -40 27 -68.5t66 -28.5h833q39 0 66 28.5t27 68.5q0 15 -3 27t-6 17zM930 6h-833q-19 0 -33 14.5t-14 34.5q0 12 4 19v1l1 2l417 682q1 1 2 3q14 24 40 24q27 0 38 -21
q1 -3 3 -6l417 -682q1 -2 2 -3q3 -7 3 -19q0 -20 -13.5 -34.5t-33.5 -14.5z" />
    <glyph glyph-name="daishiyong1" unicode="&#xe8b1;" 
d="M512 -63q-91 0 -174 35q-80 34 -142 96t-96 142q-35 83 -35 174t35 174q34 80 96 142t142 96q83 35 174 35t174 -35q80 -34 142 -96t96 -142q35 -83 35 -174q0 -77 -25 -149q-4 -10 -13.5 -14.5t-19.5 -1t-14.5 13t-1.5 19.5q23 64 23 132q0 107 -53 198.5t-144.5 144.5
t-198.5 53t-198.5 -53t-144.5 -144.5t-53 -198.5t53 -198.5t144.5 -144.5t198.5 -53q150 0 262 99q8 7 18.5 6.5t17.5 -8.5t6.5 -18.5t-8.5 -17.5q-61 -54 -137.5 -83t-158.5 -29zM780 172q-8 0 -14 4l-268 185q-12 7 -12 21v283q0 11 7.5 18.5t18.5 7.5t18.5 -7.5
t7.5 -18.5v-270l257 -177q9 -6 10.5 -16.5t-4.5 -18.5q-7 -11 -21 -11z" />
    <glyph glyph-name="fuwu_hui" unicode="&#xe737;" 
d="M531 503h139v-38h-139v38zM531 438h139v-38h-139v38zM351 503h140v-38h-140v38zM838 756h-652q-19 0 -32.5 -13.5t-13.5 -32.5v-652q0 -19 13.5 -32.5t32.5 -13.5h652q19 0 32.5 13.5t13.5 32.5v652q0 19 -13.5 32.5t-32.5 13.5zM263 598h228v37h40v-37h228v-35h-228v-32
h176v-163h-25q55 -48 74 -72l-30 -21q-19 23 -30 35q-182 -14 -414 -17l-5 35q84 0 214 5v35h-177v163h177v32h-228v35zM577 219l-30 -21q-27 35 -65 70l30 18q36 -30 65 -67zM293 142l-32 21q34 43 53 109l37 -7q-19 -65 -58 -123zM631 144q-16 -11 -42 -11h-147
q-49 0 -49 46v98h40v-88q0 -19 21 -19h128q16 0 23 7q9 13 12 53l37 -11q-10 -62 -23 -75zM733 154q-31 48 -84 111l31 19q47 -53 86 -109zM645 363l14 9h-128v-35q24 2 69.5 3t67.5 2q-4 4 -12 11t-11 10zM351 438h140v-38h-140v38z" />
    <glyph glyph-name="mimaweixianshi1" unicode="&#xe501;" horiz-adv-x="1040" 
d="M960 597q-78 -105 -194 -164t-247 -59t-247.5 59t-193.5 164h-70l5 -9q85 -128 219 -200t287 -72t287 72t219 201l5 8h-70zM497 320v-149h54v149h-54zM706 358l63 -149l50 21l-63 149zM883 453l99 -127l42 33l-98 127zM288 380l-57 -156l51 -18l57 155zM120 482l-99 -128
l43 -33l99 127z" />
    <glyph glyph-name="kaquan" unicode="&#xe620;" 
d="M878 78h-732q-41 0 -63 22.5t-22 63.5v133q0 14 14 14q31 0 52 21t21 52t-21 52t-52 21q-14 0 -14 14v133q0 41 22 63.5t63 22.5h732q41 0 63 -22.5t22 -63.5v-133q0 -14 -14 -14q-31 0 -52 -21t-21 -52t21 -52t52 -21q14 0 14 -14v-133q0 -41 -22 -63.5t-63 -22.5z
M90 284v-120q0 -29 13.5 -43t42.5 -14h732q29 0 42.5 14t13.5 43v120q-37 5 -62 33.5t-25 66.5t25 66.5t62 33.5v120q0 29 -13.5 43t-42.5 14h-732q-29 0 -42.5 -14t-13.5 -43v-120q37 -5 62 -33.5t25 -66.5t-25 -66.5t-62 -33.5zM337.5 559q-14.5 0 -14.5 14v102
q0 15 14.5 15t14.5 -15v-102q0 -14 -14.5 -14zM337.5 399q-14.5 0 -14.5 14v102q0 15 14.5 15t14.5 -15v-102q0 -14 -14.5 -14zM337.5 238q-14.5 0 -14.5 15v102q0 14 14.5 14t14.5 -14v-102q0 -15 -14.5 -15zM337.5 78q-14.5 0 -14.5 15v102q0 14 14.5 14t14.5 -14v-102
q0 -15 -14.5 -15z" />
    <glyph glyph-name="tuan2" unicode="&#xe677;" 
d="M956 896h-888v0q-28 0 -48 -20t-20 -48v-888v0q0 -28 20 -48t48 -20h888v0q28 0 48 20t20 48v888q0 28 -20 48t-48 20zM852 29h-58v37h-555v-38h-59v717h672v-716zM794 691h-555v-571h555v571zM768 503h-148v-234q0 -111 -106 -111q-43 0 -89 1q-4 27 -12 61q52 -6 87 -6
q63 0 63 71v180q-93 -145 -275 -257q-15 26 -39 52q178 99 278 243h-251v53h287v110h57v-110h148v-53z" />
    <glyph glyph-name="huochepiao1" unicode="&#xe63b;" 
d="M376 52h301q7 0 12 -5t5 -12v-17q0 -6 -5 -11t-12 -5h-301q-7 0 -12 5t-5 11v17q0 7 5 12t12 5zM710 375q-21 0 -35.5 -15t-14.5 -36t14.5 -36t35.5 -15t35.5 15t14.5 36t-14.5 36t-35.5 15zM760 596q0 15 -9.5 25t-23.5 10h-401q-14 0 -23.5 -10t-9.5 -25v-136
q0 -14 9.5 -24t23.5 -10h401q14 0 23.5 10t9.5 24v136zM342.5 273q20.5 0 35.5 15t15 36t-15 36t-35.5 15t-35.5 -15t-15 -36q1 -21 15.5 -36t35 -15zM845 -28q-12 -7 -24.5 -3.5t-18.5 15.5l-69 120q-8 -1 -17 -1h-378q-9 0 -17 1l-69 -120q-7 -12 -19.5 -15.5t-23.5 3.5
q-12 6 -15 19t3 25l64 113q-26 18 -39.5 47.5t-11.5 63.5l24 366q3 48 32 79t77 31h100q0 36 24.5 60.5t59 24.5t59 -24.5t24.5 -60.5h117q85 0 92 -110l24 -366q3 -34 -11 -63.5t-40 -47.5l64 -113q7 -12 3.5 -25t-14.5 -19z" />
    <glyph glyph-name="jiantouyoujiantou" unicode="&#xe502;" 
d="M491 172l1 -0.5t2 -0.5q13 -7 28 -4.5t26 13.5l325 344q13 14 12.5 33t-14.5 32.5t-33.5 13t-32.5 -14.5l-292 -309l-296 308q-13 14 -32.5 14t-33.5 -13q-14 -14 -14 -34q0 -19 13 -32l328 -341l1 -0.5t1.5 -1l1.5 -1.5t9 -6v0zM491 172z" />
    <glyph glyph-name="password-show" unicode="&#xe667;" 
d="M384 192q0 -53 37.5 -90.5t90.5 -37.5t90.5 37.5t37.5 90.5t-37.5 90.5t-90.5 37.5t-90.5 -37.5t-37.5 -90.5zM561 671v-181q73 -3 141 -17l47 174q3 10 11.5 17t19.5 7q4 0 9 -1q12 -4 19 -15.5t3 -24.5l-46 -174q112 -34 199 -107l-8 165q6 13 26 13v0q11 0 19.5 -6.5
t11.5 -17.5q1 -4 1 -8q0 -9 -4 -17l-90 -97q85 -64 99 -144q2 -2 2 -9l1 -15h-5q-10 -18 -29 -18v0q-19 0 -28 16l-3 6l-2 7q-8 55 -67 101.5t-154 73t-205 26.5t-205 -26.5t-154.5 -72.5t-67.5 -102l-2 -13q-10 -18 -31 -18q-13 0 -22.5 9.5t-9.5 23.5q0 3 1 7q8 61 62 115
l-94 128q-6 8 -6 18q0 19 17 28q7 4 16 4q18 0 28 -16l89 -120q99 67 219 82l-155 154q-1 4 -1 9q0 9 4 16q9 14 25 17h7q12 0 21.5 -6.5t12.5 -17.5l56 -175q85 21 181 21l-24 181v0q0 14 9.5 23.5t23 9.5t23 -9.5t9.5 -23.5v0z" />
    <glyph glyph-name="jiantouyoujiantou1" unicode="&#xe503;" 
d="M300 405l-0.5 -1t-0.5 -2q-7 -13 -4.5 -28t13.5 -26l344 -325q14 -13 33 -12.5t32.5 14.5t13 33.5t-14.5 32.5l-309 292l308 296q14 13 14 32.5t-13 33.5q-14 14 -34 14q-19 0 -32 -13l-341 -328l-0.5 -1t-1 -1.5l-1.5 -1.5t-6 -9v0zM300 405z" />
    <glyph glyph-name="jiantouyoujiantou2" unicode="&#xe63c;" 
d="M724 363l0.5 1t0.5 2q7 13 4.5 28t-13.5 26l-344 325q-14 13 -33 12.5t-32.5 -14.5t-13 -33.5t14.5 -32.5l309 -292l-308 -296q-14 -13 -14 -32.5t13 -33.5q14 -14 34 -14q19 0 32 13l341 328l0.5 1t1 1.5l1.5 1.5t6 9v0zM724 363z" />
    <glyph glyph-name="huiyuanqia" unicode="&#xe621;" 
d="M714 380q-15 -1 -20 0v-87q5 0 20 -2q67 -7 66 46q0 45 -66 43zM1020 725q0 26 -18.5 45t-44.5 19h-890q-26 0 -44.5 -19t-18.5 -45v-89h1016v89zM4 585v-546q0 -26 18.5 -44.5t44.5 -18.5h890q26 0 44.5 18.5t18.5 44.5v546h-1016zM362 121h-73l-115 312h73l81 -247h2
l81 247h65zM574 121h-67v312h67v-312zM743 240h-49v-119h-66v312h96q127 1 127 -96q-4 -91 -108 -97z" />
  </font>
</defs>
</svg>
